<svg width="309" height="316" fill="none" xmlns="http://www.w3.org/2000/svg"><g clip-path="url(#a)"><path d="M147.027 291.466c-74.94 0-135.902-60.987-135.902-135.957S72.088 19.553 147.027 19.553c74.94 0 135.902 60.987 135.902 135.956 0 74.97-60.962 135.957-135.902 135.957Zm0-252.973c-64.493 0-116.97 52.497-116.97 117.016 0 64.52 52.477 117.017 116.97 117.017s116.97-52.497 116.97-117.017c0-64.519-52.477-117.016-116.97-117.016Z" fill="#fff"/><path d="M146.838 291.266c-74.94 0-135.902-60.987-135.902-135.957S71.899 19.352 146.838 19.352v18.94c-64.493 0-116.97 52.498-116.97 117.017s52.477 117.017 116.97 117.017 116.969-52.498 116.969-117.017c0-11.887-1.77-23.608-5.267-34.839l18.075-5.626c4.065 13.058 6.125 26.672 6.125 40.465 0 74.97-60.963 135.957-135.902 135.957Z" fill="#AD8467"/><path d="M11.103 103.547 7.84 96.851c-.234-.468-.857-1.716-1.18-2.206-.557-.891-1.092-1.27-1.593-1.481-1.38-.591-2.817-.023-3.441 1.426-.368.869-.29 1.749.212 2.506.267.401.668.747 1.28 1.025l-.579 1.37C1.325 98.913.735 98.2.39 97.487c-.367-.768-.667-1.916 0-3.454.925-2.172 3.175-3.141 5.29-2.228.836.357 1.482.914 2.217 2.106.501.824.969 1.805 1.336 2.551l1.805 3.8 2.216-5.203 1.247.534-3.386 7.955h-.01Zm3.464-12.155c-1.548.19-3.285-.2-4.978-1.08-1.693-.88-3.007-2.084-3.731-3.465-.846-1.594-.68-3.02-.19-3.967.49-.947 1.57-1.894 3.364-2.117 1.548-.189 3.285.2 4.978 1.081 1.693.88 3.007 2.084 3.73 3.465.847 1.593.691 3.03.19 3.966-.49.947-1.57 1.894-3.363 2.117Zm-7.44-5.147c.68 1.17 1.905 2.106 3.152 2.752 1.248.646 2.718 1.125 4.065 1.014 1.325-.1 2.06-.758 2.383-1.36.312-.601.424-1.593-.245-2.73-.679-1.169-1.915-2.105-3.151-2.751-1.248-.646-2.718-1.125-4.065-1.014-1.314.1-2.06.758-2.383 1.36-.312.6-.424 1.593.245 2.729Zm7.551-13.059c1.37.87 1.771 2.64.902 4.011a2.883 2.883 0 0 1-4.009.903 2.886 2.886 0 0 1-.902-4.011 2.883 2.883 0 0 1 4.01-.903Zm-.646 1.014c-.835-.523-1.904-.356-2.438.468-.502.791-.234 1.872.612 2.407.847.534 1.927.323 2.439-.468.524-.825.223-1.883-.612-2.407Zm.29-6.15.79-.423 7.184 13.793-.813.412-7.16-13.782Zm10.758 3.332c1.37.869 1.77 2.64.891 4.01-.88 1.37-2.64 1.772-4.01.903a2.886 2.886 0 0 1-.901-4.011 2.883 2.883 0 0 1 4.01-.902h.01Zm-.646 1.013c-.835-.523-1.904-.356-2.439.468-.5.791-.234 1.872.613 2.407.846.535 1.927.323 2.439-.468.523-.836.223-1.883-.613-2.407Zm.88-17.725 1.38 5.08c.145-.367.346-.702.602-1.036 1.615-1.994 4.22-2.15 6.159-.58 2.071 1.683 2.35 4.39.668 6.463-1.982 2.44-4.822 2.05-6.448.724-.39-.312-1.225-1.125-1.682-2.797l-2.038-7.52 1.359-.345v.01Zm7.239 4.646c-1.381-1.126-3.23-.925-4.377.501-1.147 1.426-.913 3.264.434 4.356 1.381 1.126 3.274 1.025 4.444-.423 1.158-1.437.902-3.298-.501-4.445v.01Zm5.09-1.971c-1.537-.245-3.108-1.092-4.489-2.407-1.38-1.315-2.316-2.83-2.65-4.356-.379-1.76.167-3.097.902-3.866.735-.769 2.038-1.393 3.809-1.114 1.537.245 3.107 1.092 4.488 2.406 1.38 1.315 2.316 2.83 2.65 4.356.38 1.76-.167 3.098-.902 3.867-.735.768-2.038 1.392-3.808 1.114Zm-5.758-6.997c.334 1.315 1.258 2.551 2.283 3.51 1.025.969 2.305 1.827 3.63 2.083 1.303.267 2.194-.156 2.662-.658.468-.49.835-1.414.512-2.696-.334-1.314-1.258-2.551-2.283-3.51-1.024-.968-2.305-1.826-3.63-2.083-1.303-.267-2.194.156-2.662.658-.468.49-.835 1.415-.512 2.696Zm10.367-2.408 3.208-3.018 1.013 1.08-3.207 3.02-1.014-1.081Zm3.442-12.466-1.715 1.438-.3-1.582 2.26-1.895 8.575 10.25-1.136.947-7.684-9.169v.011Zm9.5-7.398-1.827 1.303-.178-1.593 2.395-1.715 7.784 10.873-1.203.87-6.971-9.738Zm14.444 4.089.412-5.247a4.08 4.08 0 0 1-.913.768c-2.194 1.337-4.7.602-5.992-1.526-1.38-2.284-.735-4.924 1.548-6.306 2.696-1.638 5.235-.312 6.326 1.493.256.423.79 1.493.646 3.198l-.624 7.743-1.392-.123h-.01Zm-5.256-6.807c.924 1.526 2.728 1.95 4.287 1.014 1.56-.947 1.96-2.763 1.058-4.256-.924-1.527-2.728-2.072-4.332-1.103-1.581.958-1.96 2.807-1.024 4.345h.01Zm17.061.512-3.686-13.804 9.266 8.233.2-12.455 7.629 12.077-1.392.612-4.923-7.988-.167 10.863-8.096-7.197 2.561 9.035-1.392.613v.011ZM102.38 3.375l4.143 12.713-1.414.456L101.4 5.17l-4.911 1.604 2.227 6.819c.368 1.147.98 2.796.134 4.278-.39.68-1.08 1.203-1.927 1.47-.089.034-.39.101-.802.134l-.434-1.336c.212 0 .479-.034.746-.112.568-.19.913-.568 1.08-.902.502-.98.034-2.351-.39-3.643l-2.472-7.588 7.74-2.529-.011.011Zm6.827 3.8 6.682-1.549-1.225-5.292L116.112 0l3.018 13.024-1.448.334-1.47-6.372-6.682 1.548 1.47 6.373-1.448.334-3.018-13.024 1.448-.334 1.225 5.292Z" fill="#E7D7C5"/><path d="M131.581 94.757h-3.119l1.081-1.95h4.087v18.573h-2.061V94.757h.012Zm11.359 13.893 1.837.668-2.806 6.295-1.303-.523 2.283-6.429-.011-.011Zm18.008-13.948h-5.958l-1.192 4.01c.357-.089.724-.11 1.17-.11 3.73 0 6.125 2.807 6.125 6.428 0 4.144-3.118 6.684-6.76 6.684-1.504 0-2.896-.423-4.143-1.448-.579-.501-1.169-1.136-1.615-1.894l1.637-1.17c.301.613.691 1.059 1.248 1.504.779.635 1.726 1.114 3.006 1.114 2.618 0 4.567-2.139 4.567-4.757s-1.916-4.568-4.567-4.568c-.668 0-1.915.112-3.586 1.281l2.696-8.968h7.372v1.894Zm-86.934 50.101 3.085-19.608 7.128 15.676 7.26-15.71 2.897 19.631h-2.117l-1.748-12.924-6.315 13.704-6.236-13.704-1.838 12.924h-2.116v.011Zm37.866-18.573v18.573h-2.061V128.18h-7.183v9.972c0 1.671.078 4.122-1.67 5.704-.802.724-1.95 1.114-3.174 1.114a4.81 4.81 0 0 1-1.114-.167v-1.95c.279.078.635.167 1.025.167.835 0 1.447-.356 1.804-.724 1.08-1.081 1.058-3.086 1.058-4.98V126.23h11.315Zm8.163.001c1.859 0 3.419.222 4.677 1.303 1.37 1.17 1.693 2.808 1.693 3.978 0 2.618-1.637 5.203-5.869 5.203h-1.804v8.077h-2.061v-18.573h3.364v.012Zm-1.303 8.545h1.692c2.45 0 3.921-1.226 3.921-3.365 0-2.952-2.751-3.231-4.088-3.231h-1.525v6.596Zm22.652-8.546v16.623h2.116v5.849h-1.949v-3.899h-13.141v3.899h-1.949v-5.849c1.336.056 2.394-1.114 2.951-2.507.356-.913.668-2.306.668-4.868v-9.248h11.304Zm-9.243 9.248c0 2.562-.223 4.011-.669 5.18a5.962 5.962 0 0 1-1.414 2.195h9.266V128.18h-7.183v7.298Zm23.977-9.248c1.024 0 2.895.09 4.254 1.17.579.446 1.671 1.582 1.671 3.844 0 .914-.201 2.529-1.838 3.643 2.584.646 3.53 2.897 3.53 4.68 0 1.782-.891 3.231-1.893 4.01-1.47 1.17-3.174 1.226-4.455 1.226h-4.621V126.23h3.352Zm-1.281 8.156h1.559c1.092 0 3.642-.223 3.642-3.086 0-3.064-3.007-3.12-3.586-3.12h-1.615v6.206Zm0 8.467h2.361c1.192 0 2.361-.089 3.252-.78.724-.534 1.225-1.448 1.225-2.562 0-1.471-.857-2.34-1.581-2.73-.691-.39-1.671-.557-3.141-.557h-2.116v6.629Zm19.178-16.623h8.464v1.95h-6.404v16.623h-2.06V126.23Zm9.277 9.304c0-5.537 4.31-9.604 9.655-9.604 5.346 0 9.656 4.067 9.656 9.604 0 5.537-4.288 9.604-9.656 9.604s-9.655-4.089-9.655-9.604Zm2.116 0c0 4.256 3.363 7.654 7.539 7.654 4.177 0 7.54-3.398 7.54-7.654s-3.363-7.654-7.54-7.654c-4.176 0-7.539 3.398-7.539 7.654Zm33.9-9.304v16.623h2.116v5.849h-1.949v-3.899h-13.142v3.899h-1.949v-5.849c1.337.056 2.395-1.114 2.952-2.507.367-.913.668-2.306.668-4.868v-9.248h11.304Zm-9.244 9.248c0 2.562-.223 4.011-.668 5.18a5.974 5.974 0 0 1-1.414 2.195h9.265V128.18h-7.183v7.298Zm-88.403 37.847c-.323-.323-.802-.702-1.314-.936a4.254 4.254 0 0 0-1.737-.39c-2.339 0-4.065 1.883-4.065 4.212 0 2.74 2.227 4.122 4.076 4.122.679 0 1.347-.201 1.882-.468.579-.29.98-.668 1.169-.847v1.393a5.282 5.282 0 0 1-3.051.98c-3.007 0-5.234-2.272-5.234-5.203 0-2.93 2.26-5.258 5.289-5.258a4.78 4.78 0 0 1 2.985 1.002v1.393Zm3.898-2.228c1.013 0 1.859.122 2.55.713.746.635.924 1.526.924 2.173 0 1.426-.891 2.829-3.196 2.829h-.98v4.401h-1.125v-10.116h1.838-.011Zm-.713 4.657h.924c1.337 0 2.138-.669 2.138-1.838 0-1.605-1.503-1.761-2.227-1.761h-.835v3.599Zm11.036-3.588h-4.12v2.997h3.998v1.059h-3.998v3.933h4.12v1.058h-5.245v-10.116h5.245v1.069Zm9.099-1.069v9.058h1.147v3.186h-1.058v-2.128h-7.149v2.128h-1.058v-3.186c.723.033 1.303-.602 1.603-1.371.201-.501.368-1.259.368-2.651v-5.036H145h-.011Zm-5.034 5.036c0 1.392-.122 2.183-.367 2.819-.178.49-.446.869-.768 1.203h5.044v-7.989h-3.909v3.978-.011Zm8.832-.925h5.179v-4.111h1.124v10.116h-1.124v-4.947h-5.179v4.947h-1.125v-10.116h1.125v4.111Zm15.948-1.716-7.038 8.178v-10.573h1.124v7.754l7.039-8.177v10.539h-1.125v-7.721Zm10.758 0-7.038 8.178v-10.573h1.124v7.754l7.039-8.178v10.54h-1.125v-7.721Zm-4.243-5.036c.245.836 1.169.847 1.292.847.122 0 1.047-.011 1.292-.847l1.058.346c-.089.256-.624 1.47-2.35 1.47s-2.261-1.214-2.35-1.47l1.058-.346Zm-93.716 25.915c0-3.019 2.35-5.236 5.256-5.236 2.907 0 5.257 2.217 5.257 5.236 0 3.02-2.339 5.237-5.257 5.237-2.918 0-5.256-2.228-5.256-5.237Zm1.147 0c0 2.318 1.837 4.167 4.11 4.167 2.271 0 4.109-1.849 4.109-4.167 0-2.317-1.838-4.166-4.11-4.166-2.272 0-4.11 1.849-4.11 4.166Zm11.438-5.069h5.022v1.058h-3.898v3.142h1.37c1.248 0 3.486.257 3.486 2.852 0 1.928-1.292 3.064-3.274 3.064H90.13v-10.116h-.011Zm1.124 9.058h1.303c.457 0 1.292 0 1.86-.557.279-.256.535-.713.535-1.437 0-.491-.123-1.148-.813-1.527-.468-.256-1.08-.256-1.693-.256h-1.18v3.788l-.012-.011Zm6.36-3.989c0-3.019 2.35-5.236 5.256-5.236 2.907 0 5.257 2.217 5.257 5.236 0 3.02-2.339 5.237-5.257 5.237-2.918 0-5.256-2.228-5.256-5.237Zm1.147 0c0 2.318 1.837 4.167 4.109 4.167 2.272 0 4.11-1.849 4.11-4.167 0-2.317-1.838-4.166-4.11-4.166-2.272 0-4.11 1.849-4.11 4.166Zm13.274-5.069c1.014 0 1.86.123 2.551.713.746.635.924 1.538.924 2.173 0 1.426-.891 2.829-3.196 2.829h-.98v4.401h-1.125v-10.116h1.837-.011Zm-.712 4.657h.924c1.336 0 2.138-.668 2.138-1.838 0-1.605-1.503-1.761-2.227-1.761h-.835v3.599Zm5.245.412c0-3.019 2.35-5.236 5.256-5.236 2.907 0 5.257 2.217 5.257 5.236 0 3.02-2.339 5.237-5.257 5.237-2.918 0-5.256-2.228-5.256-5.237Zm1.147 0c0 2.318 1.837 4.167 4.109 4.167 2.272 0 4.11-1.849 4.11-4.167 0-2.317-1.838-4.166-4.11-4.166-2.272 0-4.109 1.849-4.109 4.166Zm13.932-4.011v9.058h-1.125v-9.058h-2.461v-1.058h6.036v1.058h-2.45Zm9.333-1.058c1.013 0 1.86.123 2.55.713.746.635.924 1.538.924 2.173 0 1.426-.891 2.829-3.196 2.829h-.98v4.401h-1.125v-10.116h1.838-.011Zm-.713 4.657h.924c1.337 0 2.139-.668 2.139-1.838 0-1.605-1.504-1.761-2.228-1.761h-.835v3.599Zm11.037-3.598h-4.121v2.997h3.998v1.058h-3.998v3.933h4.121v1.058h-5.245v-10.116h5.245v1.07Zm2.283.245c.813-1.215 1.904-1.471 2.895-1.471.512 0 1.437.078 2.138.713.435.39.791 1.036.791 1.861 0 1.036-.601 1.771-1.392 2.139 1.348.301 2.027 1.381 2.027 2.607a2.96 2.96 0 0 1-1.259 2.473c-.634.435-1.481.669-2.305.669-2.004 0-3.14-1.248-3.653-2.429l1.092-.49c.412 1.136 1.392 1.849 2.606 1.849.545 0 1.124-.134 1.548-.423.657-.457.824-1.081.824-1.627 0-1.849-1.715-1.983-2.695-1.983h-.914v-1.058h.914c1.414 0 2.06-.791 2.06-1.716a1.5 1.5 0 0 0-.412-1.059c-.39-.412-.969-.468-1.359-.468-.724 0-1.425.212-2.027 1.092l-.868-.679h-.011Zm15.547 1.091-7.039 8.178v-10.573h1.125v7.754l7.039-8.177v10.539h-1.125v-7.721Zm10.769-2.395v9.058h1.147v3.186h-1.058v-2.128h-7.15v2.128h-1.058v-3.186c.724.033 1.303-.602 1.604-1.371.201-.501.368-1.258.368-2.651v-5.036h6.158-.011Zm-5.034 5.036c0 1.393-.122 2.184-.367 2.819-.178.49-.446.869-.769 1.203h5.045v-7.988h-3.909v3.977-.011Zm12.952-3.977h-4.121v2.997h3.998v1.058h-3.998v3.933h4.121v1.058h-5.245v-10.116h5.245v1.07Zm3.185 3.052h5.179v-4.111h1.125v10.116h-1.125v-4.946h-5.179v4.946h-1.124v-10.116h1.124v4.111Zm11.404-3.053v9.058h-1.125v-9.058h-2.461v-1.058h6.036v1.058h-2.461.011Zm8.832 6.206h-4.31l-1.214 2.852h-1.247l4.655-10.595 4.532 10.595H212.4l-1.18-2.852h.011Zm-.435-1.058-1.692-4.045-1.727 4.045h3.43-.011Zm-80.084 11.998c.557 0 1.581.045 2.316.635.323.246.913.869.913 2.095 0 .501-.111 1.381-1.002 1.983 1.414.345 1.927 1.582 1.927 2.551 0 .97-.49 1.761-1.036 2.184-.802.635-1.726.669-2.428.669h-2.517v-10.117h1.827Zm-.702 4.446h.846c.591 0 1.983-.123 1.983-1.683 0-1.671-1.637-1.693-1.96-1.693h-.88v3.387l.011-.011Zm0 4.612h1.292c.657 0 1.292-.044 1.771-.423.389-.29.668-.791.668-1.393 0-.802-.468-1.27-.869-1.482-.378-.211-.913-.3-1.715-.3h-1.147v3.609-.011Zm10.458-9.058h4.61v1.059h-3.486v9.058h-1.124v-10.117Zm5.045 5.07c0-3.02 2.349-5.237 5.256-5.237s5.257 2.217 5.257 5.237c0 3.019-2.339 5.236-5.257 5.236-2.918 0-5.256-2.228-5.256-5.236Zm1.147 0c0 2.317 1.837 4.166 4.109 4.166 2.272 0 4.11-1.849 4.11-4.166 0-2.318-1.838-4.167-4.11-4.167-2.272 0-4.109 1.849-4.109 4.167Zm18.476-5.07v9.058h1.147v3.187h-1.058v-2.128h-7.15v2.128h-1.058v-3.187c.724.034 1.303-.601 1.604-1.37.2-.502.367-1.259.367-2.652v-5.036h6.159-.011Zm-5.034 5.036c0 1.393-.123 2.184-.368 2.819a3.33 3.33 0 0 1-.768 1.203h5.045v-7.988h-3.909v3.977-.011Z" fill="#AD8467"/><path d="m183.266 14.817 6.237-4.066c.434-.29 1.604-1.059 2.038-1.438.813-.657 1.125-1.236 1.281-1.76.412-1.448-.323-2.808-1.838-3.242-.902-.256-1.771-.078-2.461.524-.356.312-.657.746-.858 1.403l-1.425-.412c.434-1.27 1.058-1.95 1.726-2.384.713-.457 1.827-.891 3.419-.435 2.272.658 3.497 2.763 2.862 4.98-.245.87-.724 1.583-1.815 2.463-.757.59-1.682 1.18-2.372 1.638l-3.553 2.25 5.435 1.571-.379 1.315-8.308-2.396.011-.01Zm12.485 1.939c-.379-1.515-.201-3.287.467-5.07.669-1.782 1.704-3.242 2.974-4.133 1.481-1.036 2.918-1.047 3.909-.68.991.368 2.071 1.326 2.506 3.075.378 1.516.2 3.287-.457 5.07-.668 1.782-1.704 3.242-2.973 4.133-1.482 1.036-2.918 1.047-3.909.68-.992-.368-2.072-1.326-2.506-3.075h-.011Zm4.198-8.022c-1.08.813-1.848 2.15-2.35 3.465-.49 1.315-.779 2.83-.501 4.156.268 1.303 1.003 1.96 1.637 2.194.635.234 1.626.223 2.684-.579 1.081-.813 1.849-2.15 2.339-3.465s.78-2.83.501-4.156c-.267-1.303-1.002-1.96-1.637-2.194-.635-.234-1.626-.223-2.684.579h.011Zm18.933 4.924.523.736-12.807 8.812-.512-.746 12.796-8.802Zm-5.056.98c-.691 1.471-2.406 2.073-3.876 1.382-1.47-.69-2.071-2.406-1.381-3.877.691-1.47 2.406-2.072 3.876-1.381a2.88 2.88 0 0 1 1.381 3.877Zm-1.092-.512c.424-.891.123-1.938-.768-2.362-.846-.4-1.882 0-2.317.903-.434.902-.089 1.96.769 2.362.891.423 1.893-.011 2.316-.903Zm4.154 10.63a2.877 2.877 0 0 1-3.875 1.38 2.892 2.892 0 0 1-1.381-3.877 2.877 2.877 0 0 1 3.875-1.381c1.47.69 2.072 2.406 1.381 3.877Zm-1.091-.513c.423-.892.122-1.939-.768-2.362-.847-.401-1.883 0-2.317.902-.423.902-.089 1.96.769 2.362.89.423 1.893-.011 2.316-.902Zm5.067 5.949 7.116-2.195c.502-.156 1.827-.58 2.361-.813.969-.413 1.426-.88 1.715-1.337.802-1.27.468-2.786-.879-3.621-.802-.502-1.682-.557-2.517-.178-.435.2-.836.546-1.214 1.114l-1.259-.791c.769-1.103 1.559-1.582 2.317-1.816.813-.245 1.993-.357 3.408.523 2.004 1.26 2.606 3.621 1.381 5.582-.479.769-1.136 1.326-2.428 1.872-.891.367-1.938.68-2.729.913l-4.031 1.192 4.789 3.009-.724 1.158-7.328-4.59.022-.022Zm13.453-.134 2.929 2.14 2.038-2.786 1.17.847-2.038 2.785 2.929 2.14-.78 1.07-2.929-2.14-2.038 2.785-1.169-.846 2.038-2.786-2.929-2.139.779-1.07Zm7.607 14.885 11.27-8.79-3.976 11.754 11.549-4.68-8.141 11.743-1.114-1.036 5.435-7.654-10.068 4.09 3.464-10.273-7.328 5.894-1.114-1.048h.023Zm28.855 10.474-10.078 8.79-.98-1.114 9.02-7.866-3.396-3.9-5.413 4.725c-.902.79-2.194 1.994-3.887 1.794-.779-.09-1.525-.535-2.104-1.193a3.792 3.792 0 0 1-.435-.68l1.058-.924c.089.19.212.423.401.635.39.457.88.613 1.247.635 1.103.078 2.183-.891 3.208-1.782l6.014-5.248 5.345 6.139v-.011Zm4.02 5.236c.802 1.07 1.348 2.072 1.27 3.264-.089 1.293-.891 2.195-1.559 2.696-1.504 1.137-3.709 1.304-5.535-1.136l-.78-1.047-4.644 3.487-.891-1.192 10.692-8.022 1.458 1.939-.011.01Zm-5.49 2.941.735.98c1.058 1.416 2.405 1.739 3.631.803 1.703-1.27.668-2.986.089-3.755l-.657-.88-3.798 2.852Zm14.567 10.339-10.056 6.495.824 1.282-3.542 2.284-.757-1.181 2.361-1.527-5.134-7.955-2.361 1.527-.757-1.181 3.541-2.284c.49.835 1.604 1.014 2.673.802.701-.145 1.659-.501 3.207-1.504l5.591-3.61 4.421 6.84-.011.012Zm-9.199-1.983c-1.548 1.002-2.517 1.437-3.397 1.615a4.29 4.29 0 0 1-1.882 0l3.62 5.615 8.876-5.737-2.807-4.345-4.41 2.852Z" fill="#E7D7C5"/><path d="M147.027 291.466c-74.94 0-135.902-60.987-135.902-135.957S72.088 19.553 147.027 19.553v18.94c-64.493 0-116.97 52.497-116.97 117.016 0 64.52 52.477 117.017 116.97 117.017 20.703 0 41.039-5.481 58.813-15.843l9.534 16.367c-20.67 12.055-44.303 18.428-68.347 18.428v-.012Z" fill="#B6B5B5"/><path d="m244.396 284.614.278-7.442c.011-.524.056-1.916 0-2.496-.067-1.047-.356-1.637-.701-2.061-.936-1.17-2.473-1.359-3.709-.367-.735.59-1.08 1.403-1.002 2.317.044.479.234.969.646 1.515l-1.159.925c-.79-1.092-.98-1.994-.946-2.785.033-.847.323-2.006 1.615-3.042 1.848-1.482 4.276-1.27 5.713.535.568.702.88 1.504.969 2.908.055.958 0 2.05-.034 2.874l-.211 4.2 4.41-3.543.857 1.07-6.749 5.404.023-.012Zm9.043-9.758c-1.515-.334-3.029-1.281-4.332-2.674-1.303-1.392-2.139-2.963-2.372-4.512-.268-1.783.356-3.086 1.136-3.81.779-.725 2.116-1.259 3.875-.881 1.515.335 3.029 1.282 4.332 2.674 1.303 1.393 2.139 2.975 2.372 4.513.268 1.782-.356 3.075-1.135 3.81-.78.724-2.116 1.259-3.876.869v.011Zm-5.301-7.331c.256 1.326 1.102 2.618 2.06 3.643s2.183 1.961 3.497 2.307c1.281.345 2.194-.023 2.695-.491.501-.468.925-1.359.668-2.662-.256-1.326-1.102-2.619-2.06-3.644s-2.183-1.961-3.497-2.306c-1.281-.345-2.205.022-2.695.49-.501.468-.924 1.36-.668 2.663Zm10.212-9.972a2.887 2.887 0 0 1 .212 4.1c-1.091 1.203-2.895 1.292-4.109.211-1.203-1.092-1.292-2.896-.212-4.111a2.897 2.897 0 0 1 4.109-.212v.012Zm-.801.891c-.724-.657-1.827-.669-2.484.056-.635.702-.546 1.805.201 2.473.746.668 1.848.646 2.483-.056.657-.724.535-1.816-.2-2.473Zm1.325-6.016.846-.29 4.756 14.807-.869.267-4.733-14.796v.012Zm10.034 5.102a2.887 2.887 0 0 1 .212 4.1 2.896 2.896 0 0 1-4.11.212 2.9 2.9 0 0 1-.211-4.111 2.896 2.896 0 0 1 4.109-.212v.011Zm-.802.892c-.724-.658-1.826-.669-2.483.055-.635.702-.546 1.805.2 2.474.746.668 1.849.646 2.484-.056.657-.724.534-1.816-.201-2.473Zm9.455-14.127c1.704 1.214 2.417 3.387.836 5.615-1.582 2.228-3.876 2.261-5.58 1.058-1.18-.835-1.793-2.083-1.492-3.543-1.125.502-2.317.346-3.33-.379-1.548-1.103-2.283-3.197-.88-5.158 1.392-1.961 3.608-1.961 5.167-.858 1.014.724 1.56 1.794 1.448 3.019 1.281-.768 2.662-.59 3.842.246h-.011Zm-6.08-2.117c-1.192-.847-2.54-.502-3.252.49-.713 1.003-.591 2.384.601 3.231 1.08.769 2.45.535 3.207-.524.758-1.058.524-2.429-.556-3.197Zm5.189 3.298c-1.225-.869-2.706-.591-3.586.646-.879 1.248-.657 2.729.568 3.598 1.248.881 2.74.647 3.631-.612.891-1.259.624-2.752-.613-3.632Zm4.845-3.744c-1.559.089-3.263-.401-4.9-1.382-1.626-.98-2.874-2.273-3.508-3.688-.746-1.637-.49-3.063.055-3.977.546-.914 1.693-1.794 3.486-1.905 1.559-.089 3.274.401 4.9 1.381 1.626.981 2.874 2.273 3.508 3.688.747 1.638.502 3.064-.055 3.978-.546.913-1.693 1.793-3.486 1.905Zm-7.105-5.604c.601 1.214 1.77 2.217 2.973 2.941 1.203.724 2.64 1.292 3.987 1.259 1.325-.022 2.105-.624 2.461-1.214.357-.58.524-1.56-.078-2.741-.601-1.215-1.77-2.217-2.973-2.942-1.203-.724-2.639-1.292-3.987-1.258-1.325.022-2.105.623-2.461 1.203-.357.579-.524 1.56.078 2.741v.011Zm13.063-4.656c-1.548.212-3.286-.156-4.99-1.014-1.704-.858-3.029-2.05-3.786-3.409-.869-1.582-.724-3.019-.245-3.966.479-.947 1.548-1.917 3.33-2.162 1.548-.212 3.285.156 4.989 1.014 1.704.858 3.029 2.05 3.787 3.409.868 1.582.723 3.02.245 3.967-.479.947-1.548 1.916-3.33 2.161Zm-7.518-5.047c.691 1.159 1.938 2.083 3.197 2.707 1.258.624 2.728 1.081 4.076.958 1.314-.122 2.06-.779 2.361-1.392.312-.613.401-1.593-.29-2.73-.69-1.159-1.938-2.083-3.196-2.707-1.247-.635-2.729-1.092-4.076-.958-1.314.122-2.06.78-2.361 1.392-.312.613-.401 1.593.289 2.73Zm9.066-5.515 1.759-4.045 1.359.591-1.76 4.044-1.358-.59Zm-2.462-12.345-.779 2.105-1.047-1.214 1.013-2.763 12.552 4.612-.513 1.393-11.226-4.133Zm14.011-5.705-3.264-4.122a3.69 3.69 0 0 1-.155 1.192c-.702 2.462-3.041 3.632-5.424 2.952-2.561-.735-3.887-3.108-3.152-5.671.858-3.03 3.62-3.788 5.647-3.209.479.134 1.592.558 2.65 1.906l4.8 6.105-1.102.858v-.011Zm-8.476-1.415c1.716.49 3.33-.424 3.832-2.184.501-1.749-.446-3.353-2.116-3.832-1.715-.491-3.408.345-3.921 2.139-.501 1.771.468 3.387 2.205 3.877Zm11.482-10.171-3.563-3.866c.044.401.022.78-.067 1.192-.512 2.518-2.751 3.855-5.19 3.353-2.606-.535-4.109-2.807-3.575-5.426.635-3.086 3.33-4.044 5.39-3.62.49.1 1.626.434 2.785 1.693l5.245 5.727-1.036.935.011.012Zm-8.553-.78c1.749.356 3.286-.68 3.653-2.462.368-1.783-.69-3.321-2.394-3.666-1.749-.356-3.375.602-3.753 2.418-.368 1.805.724 3.342 2.494 3.71Zm10.681-11.008-3.843-3.587c.067.39.078.78.034 1.192-.323 2.551-2.461 4.055-4.934 3.732-2.639-.345-4.31-2.495-3.964-5.147.401-3.12 3.018-4.278 5.1-4.011.501.067 1.66.312 2.896 1.482l5.657 5.325-.957 1.003.011.011Zm-8.598-.133c1.771.222 3.23-.914 3.464-2.73.234-1.805-.936-3.253-2.662-3.476-1.771-.223-3.319.847-3.564 2.696-.234 1.827.969 3.276 2.762 3.51Zm10.669-14.596-14.099-2.261 11.293-5.103-11.293-5.27 14.133-2.039v1.527l-9.311 1.236 9.845 4.579-9.867 4.468 9.299 1.348v1.526-.011Zm-14.489-26.772 13.298-1.292.144 1.47-11.905 1.159.501 5.147 7.139-.691c1.203-.111 2.951-.345 4.21.803.579.523.935 1.314 1.024 2.194 0 .101.023.402-.044.814l-1.392.133c.044-.2.078-.467.044-.746a1.791 1.791 0 0 0-.646-1.248c-.857-.702-2.283-.546-3.641-.412l-7.941.769-.791-8.1Zm4.645-5.46-1.259-6.741-5.346 1.003-.267-1.459 13.153-2.452.267 1.46-6.426 1.203 1.259 6.741 6.425-1.204.268 1.46-13.153 2.451-.267-1.459 5.346-1.003Z" fill="#E7D7C5"/><path d="M147.027 291.466c-74.94 0-135.902-60.987-135.902-135.957 0-6.629.48-13.28 1.426-19.787l18.732 2.73a119.203 119.203 0 0 0-1.236 17.057c0 64.519 52.476 117.017 116.969 117.017 20.703 0 41.039-5.481 58.813-15.843l9.533 16.367c-20.669 12.055-44.302 18.427-68.346 18.427l.011-.011Z" fill="#3C4B45"/><path d="m5.524 224.007.668 1.504-1.247.557-.669-1.504-1.993.891-.601-1.348 1.993-.891-2.806-6.261 14.288 2.74-9.644 4.323.01-.011Zm-.602-1.348 5.502-2.462-7.239-1.393 1.726 3.866.011-.011Zm1.37 6.94c.702-1.381 2.005-2.618 3.675-3.52 1.67-.903 3.408-1.326 4.956-1.159 1.793.189 2.884 1.125 3.397 2.061.5.936.69 2.362-.123 3.966-.712 1.393-2.004 2.619-3.675 3.521-1.67.903-3.408 1.326-4.956 1.159-1.793-.19-2.884-1.125-3.396-2.061-.502-.936-.691-2.362.122-3.967Zm8.43-3.297c-1.347-.09-2.806.412-4.042 1.08-1.236.669-2.45 1.627-3.107 2.808-.657 1.147-.535 2.139-.2 2.73.322.601 1.08 1.236 2.405 1.314 1.347.089 2.806-.412 4.042-1.081 1.237-.668 2.45-1.626 3.108-2.807.657-1.148.534-2.139.2-2.73-.323-.601-1.08-1.236-2.405-1.314Zm11.917 14.194.067.891-15.525.88-.044-.902 15.513-.869h-.011Zm-7.462 8.445a2.899 2.899 0 0 1-4.031-.825 2.892 2.892 0 0 1 .835-4.033c1.359-.891 3.13-.523 4.032.836a2.891 2.891 0 0 1-.836 4.033v-.011Zm-.657-1.003c.824-.546 1.114-1.593.568-2.418-.512-.791-1.603-.98-2.45-.434-.835.546-1.091 1.627-.568 2.418.546.824 1.626.969 2.45.434Zm3.286-9.225a2.898 2.898 0 0 1-4.032-.824 2.896 2.896 0 0 1 .835-4.034c1.36-.891 3.13-.523 4.032.836a2.893 2.893 0 0 1-.835 4.033v-.011Zm-.657-1.003c.824-.546 1.113-1.593.568-2.417-.524-.791-1.604-.981-2.45-.435-.836.546-1.092 1.627-.569 2.418.546.824 1.627.969 2.44.434h.01Zm12.139 14.171-1.448-1.715 1.581-.301 1.893 2.261-10.234 8.601-.958-1.136 9.166-7.699v-.011Zm-4.133 13.548 7.44-.456c.523-.034 1.915-.134 2.483-.245 1.036-.179 1.593-.524 1.983-.903 1.069-1.047 1.102-2.596 0-3.732-.657-.68-1.504-.936-2.406-.769-.468.089-.935.334-1.437.791l-1.035-1.058c1.002-.903 1.882-1.17 2.684-1.215.846-.044 2.027.123 3.185 1.315 1.66 1.693 1.681 4.133.033 5.749-.646.635-1.414 1.025-2.795 1.248-.947.144-2.05.2-2.862.256l-4.199.212 3.954 4.044-.98.958-6.048-6.183v-.012Zm10.592 8.022c.19-1.548.98-3.142 2.238-4.579 1.259-1.426 2.74-2.418 4.255-2.807 1.748-.435 3.096.055 3.897.757.802.702 1.46 1.983 1.248 3.766-.19 1.549-.98 3.142-2.228 4.579-1.258 1.437-2.74 2.418-4.254 2.808-1.748.434-3.096-.056-3.898-.758s-1.459-1.983-1.247-3.766h-.011Zm6.77-6.005c-1.29.379-2.494 1.359-3.418 2.407-.924 1.058-1.737 2.373-1.949 3.71-.212 1.303.245 2.183.757 2.64.513.446 1.448.791 2.707.412 1.291-.378 2.494-1.359 3.419-2.406.924-1.059 1.737-2.373 1.948-3.71.212-1.304-.245-2.184-.757-2.641-.512-.445-1.448-.791-2.706-.412Zm3.063 10.161 3.475 2.718-.913 1.17-3.475-2.718.914-1.17Zm15.291 2.574-6.013-4.178.78-1.125 8.062 5.604-15.146 6.15-.512-1.303 12.83-5.159v.011Zm-.757 13.124 4.811-2.128a3.94 3.94 0 0 1-1.113-.446c-2.217-1.303-2.751-3.854-1.493-5.994 1.348-2.295 3.987-2.985 6.281-1.626 2.718 1.593 2.751 4.456 1.682 6.272-.256.435-.935 1.404-2.506 2.084l-7.116 3.119-.546-1.281Zm3.497-7.855c-.902 1.538-.423 3.332 1.147 4.256 1.57.925 3.364.424 4.243-1.08.902-1.538.524-3.387-1.08-4.334-1.593-.936-3.397-.39-4.31 1.158Zm6.983 13.694 4.632-2.485a3.86 3.86 0 0 1-1.135-.356c-2.306-1.137-3.04-3.632-1.938-5.872 1.18-2.395 3.753-3.275 6.147-2.094 2.829 1.392 3.074 4.233 2.15 6.127-.223.446-.836 1.471-2.34 2.273l-6.86 3.643-.645-1.236h-.011Zm2.906-8.089c-.79 1.604-.178 3.354 1.46 4.156 1.636.802 3.385.167 4.153-1.404.79-1.604.267-3.42-1.403-4.245-1.66-.813-3.42-.134-4.21 1.482v.011Zm10.335 14.784 6.694-12.623 1.18 12.344 8.631-8.991-2.628 14.049-1.437-.501 1.838-9.214-7.517 7.844-1.036-10.785-4.277 8.367-1.436-.49h-.011Zm30.025-5.069-3.074 13.013-1.448-.345 2.751-11.654-5.034-1.192-1.648 6.985c-.279 1.17-.624 2.908-2.116 3.721-.691.379-1.548.457-2.406.257a3.69 3.69 0 0 1-.757-.301l.323-1.37c.178.1.423.222.691.289a1.833 1.833 0 0 0 1.392-.211c.935-.58 1.247-1.995 1.57-3.321l1.837-7.765 7.919 1.872v.022Zm3.642 6.161 6.782.992.791-5.381 1.47.211-1.938 13.236-1.47-.211.947-6.473-6.783-.992-.946 6.462-1.47-.212 1.926-13.236 1.47.212-.79 5.381.011.011Z" fill="#E7D7C5"/></g><defs><clipPath id="a"><path fill="#fff" d="M0 0h308.355v316H0z"/></clipPath></defs></svg>