<svg width="693" height="316" fill="none" xmlns="http://www.w3.org/2000/svg"><path d="M49.451 300.448H46.86V310h-1.184v-9.552h-2.592v-1.12h6.368v1.12Zm1.597-1.12h1.936c1.216 0 2.112.251 2.688.752.65.555.976 1.317.976 2.288 0 .832-.283 1.541-.848 2.128-.555.576-1.397.864-2.528.864h-1.04V310h-1.184v-10.672Zm1.184 1.12v3.792h.976c.704 0 1.253-.171 1.648-.512.405-.341.608-.816.608-1.424 0-1.237-.784-1.856-2.352-1.856h-.88ZM64.715 310l-1.248-3.008h-4.544L57.643 310h-1.312l4.912-11.184L66.027 310h-1.312Zm-5.328-4.128h3.616l-1.792-4.272-1.824 4.272Zm9.33-6.544v4.336h5.471v-4.336h1.184V310h-1.184v-5.216h-5.472V310h-1.184v-10.672h1.184Zm17.569.88v1.472a4.913 4.913 0 0 0-1.392-.992 4.402 4.402 0 0 0-1.84-.416c-1.227 0-2.25.432-3.072 1.296-.81.853-1.216 1.904-1.216 3.152 0 1.344.443 2.405 1.328 3.184.896.779 1.888 1.168 2.976 1.168.683 0 1.344-.165 1.984-.496a4.734 4.734 0 0 0 1.232-.896v1.472a5.412 5.412 0 0 1-3.216 1.04c-1.579 0-2.896-.528-3.952-1.584-1.045-1.056-1.568-2.357-1.568-3.904 0-1.589.528-2.912 1.584-3.968 1.067-1.056 2.4-1.584 4-1.584a5.08 5.08 0 0 1 3.152 1.056Zm2.184-.88h7.84V310h-1.184v-9.552h-5.472V310H88.47v-10.672Zm19.506 9.28c-1.067 1.056-2.379 1.584-3.936 1.584-1.558 0-2.875-.528-3.952-1.584-1.067-1.056-1.6-2.368-1.6-3.936 0-1.579.538-2.891 1.616-3.936 1.077-1.056 2.389-1.584 3.936-1.584 1.546 0 2.858.528 3.936 1.584 1.077 1.045 1.616 2.357 1.616 3.936 0 1.568-.539 2.88-1.616 3.936Zm-.864-7.056c-.843-.853-1.867-1.28-3.072-1.28-1.206 0-2.23.427-3.072 1.28-.843.853-1.264 1.893-1.264 3.12s.421 2.267 1.264 3.12c.842.853 1.866 1.28 3.072 1.28 1.205 0 2.229-.427 3.072-1.28.842-.853 1.264-1.893 1.264-3.12s-.422-2.267-1.264-3.12Zm4.655-2.224h1.936c1.216 0 2.112.251 2.688.752.65.555.976 1.317.976 2.288 0 .832-.283 1.541-.848 2.128-.555.576-1.398.864-2.528.864h-1.04V310h-1.184v-10.672Zm1.184 1.12v3.792h.976c.704 0 1.253-.171 1.648-.512.405-.341.608-.816.608-1.424 0-1.237-.784-1.856-2.352-1.856h-.88Zm11.829 0h-2.592V310h-1.184v-9.552h-2.592v-1.12h6.368v1.12Z" fill="#fff"/><path fill="#AD8467" d="M135 296.5h87v17h-87z"/><path d="M232.56 300.968h-1.184a3.301 3.301 0 0 1 .496-1.568c.704-1.104 1.84-1.248 2.48-1.248 2.016 0 3.008 1.408 3.008 2.88 0 .768-.288 1.824-1.376 2.368.368.144 1.536.736 1.536 2.576 0 2-1.456 3.216-3.28 3.216-1.104 0-2.4-.464-2.976-1.84a3.131 3.131 0 0 1-.24-1.12h1.184c.048.384.176.784.384 1.072.352.512.976.8 1.648.8 1.184 0 2.096-.976 2.096-2.16 0-.608-.24-1.424-1.056-1.792-.336-.16-.8-.24-1.216-.224v-1.056c.416.032.88-.048 1.216-.224.336-.176.896-.624.896-1.584 0-.944-.512-1.824-1.824-1.824-.432 0-.96.08-1.376.608a2.137 2.137 0 0 0-.416 1.12Zm9.382-2.736a2.301 2.301 0 0 1 2.32 2.32 2.301 2.301 0 0 1-2.32 2.32 2.301 2.301 0 0 1-2.32-2.32 2.301 2.301 0 0 1 2.32-2.32Zm0 3.76c.784 0 1.36-.656 1.36-1.44 0-.784-.576-1.44-1.36-1.44-.752 0-1.36.64-1.36 1.44 0 .8.608 1.44 1.36 1.44Zm-.592 6.848 6.224-10.72.624.352-6.224 10.736-.624-.368Zm6.256-4.368a2.301 2.301 0 0 1 2.32 2.32 2.301 2.301 0 0 1-2.32 2.32 2.301 2.301 0 0 1-2.32-2.32 2.301 2.301 0 0 1 2.32-2.32Zm0 3.76c.784 0 1.36-.656 1.36-1.44 0-.784-.576-1.44-1.36-1.44-.752 0-1.36.64-1.36 1.44 0 .8.608 1.44 1.36 1.44Z" fill="#fff"/><path fill="#AD8467" d="M135 254.5h145v17H135z"/><path d="M295.664 257.328v1.088h-3.424l-.688 2.304c.181-.043.405-.064.672-.064 1.056 0 1.904.352 2.544 1.056.651.704.976 1.584.976 2.64 0 1.152-.379 2.08-1.136 2.784-.747.704-1.664 1.056-2.752 1.056-.917 0-1.712-.277-2.384-.832a4.427 4.427 0 0 1-.928-1.088l.944-.672c.16.32.4.608.72.864.523.427 1.099.64 1.728.64.747 0 1.371-.267 1.872-.8.501-.533.752-1.179.752-1.936 0-.768-.251-1.397-.752-1.888-.491-.491-1.115-.736-1.872-.736-.672 0-1.36.245-2.064.736l1.552-5.152h4.24Zm2.63.576a2.24 2.24 0 0 1 1.648-.672c.65 0 1.2.224 1.648.672.448.448.672.997.672 1.648 0 .651-.224 1.2-.672 1.648a2.242 2.242 0 0 1-1.648.672 2.24 2.24 0 0 1-1.648-.672 2.24 2.24 0 0 1-.672-1.648c0-.651.224-1.2.672-1.648Zm1.648 3.088c.384 0 .704-.139.96-.416.266-.288.4-.629.4-1.024s-.134-.731-.4-1.008a1.231 1.231 0 0 0-.96-.432 1.26 1.26 0 0 0-.96.432c-.267.277-.4.613-.4 1.008s.133.736.4 1.024c.266.277.586.416.96.416Zm-.592 6.848 6.224-10.72.624.352-6.224 10.736-.624-.368Zm4.608-3.696a2.24 2.24 0 0 1 1.648-.672c.65 0 1.2.224 1.648.672.448.448.672.997.672 1.648 0 .651-.224 1.2-.672 1.648a2.242 2.242 0 0 1-1.648.672 2.24 2.24 0 0 1-1.648-.672 2.24 2.24 0 0 1-.672-1.648c0-.651.224-1.2.672-1.648Zm1.648 3.088c.384 0 .704-.139.96-.416.266-.288.4-.629.4-1.024s-.134-.731-.4-1.008a1.231 1.231 0 0 0-.96-.432 1.26 1.26 0 0 0-.96.432c-.267.277-.4.613-.4 1.008s.133.736.4 1.024c.266.277.586.416.96.416Z" fill="#fff"/><path fill="#AD8467" d="M135 212.5h203v17H135z"/><path d="m346.832 225.632 6.064-9.216h-5.84v-1.088h7.84l-7.136 10.928-.928-.624Zm9.462-9.728a2.24 2.24 0 0 1 1.648-.672c.65 0 1.2.224 1.648.672.448.448.672.997.672 1.648 0 .651-.224 1.2-.672 1.648a2.242 2.242 0 0 1-1.648.672 2.24 2.24 0 0 1-1.648-.672 2.24 2.24 0 0 1-.672-1.648c0-.651.224-1.2.672-1.648Zm1.648 3.088c.384 0 .704-.139.96-.416.266-.288.4-.629.4-1.024s-.134-.731-.4-1.008a1.231 1.231 0 0 0-.96-.432 1.26 1.26 0 0 0-.96.432c-.267.277-.4.613-.4 1.008s.133.736.4 1.024c.266.277.586.416.96.416Zm-.592 6.848 6.224-10.72.624.352-6.224 10.736-.624-.368Zm4.608-3.696a2.24 2.24 0 0 1 1.648-.672c.65 0 1.2.224 1.648.672.448.448.672.997.672 1.648 0 .651-.224 1.2-.672 1.648a2.242 2.242 0 0 1-1.648.672 2.24 2.24 0 0 1-1.648-.672 2.24 2.24 0 0 1-.672-1.648c0-.651.224-1.2.672-1.648Zm1.648 3.088c.384 0 .704-.139.96-.416.266-.288.4-.629.4-1.024s-.134-.731-.4-1.008a1.231 1.231 0 0 0-.96-.432 1.26 1.26 0 0 0-.96.432c-.267.277-.4.613-.4 1.008s.133.736.4 1.024c.266.277.586.416.96.416Z" fill="#fff"/><path fill="#AD8467" d="M135 170.5h290v17H135z"/><path d="M437.256 184v-9.552h-1.792l.624-1.12h2.352V184h-1.184Zm11.102-1.408c-.736 1.067-1.648 1.6-2.736 1.6-1.088 0-2-.533-2.736-1.6-.715-1.035-1.072-2.341-1.072-3.92 0-1.579.357-2.885 1.072-3.92.736-1.067 1.648-1.6 2.736-1.6 1.088 0 2 .533 2.736 1.6.715 1.035 1.072 2.341 1.072 3.92 0 1.579-.357 2.885-1.072 3.92Zm-.896-7.168c-.491-.789-1.104-1.184-1.84-1.184s-1.349.395-1.84 1.184c-.523.832-.784 1.915-.784 3.248 0 1.333.261 2.416.784 3.248.491.789 1.104 1.184 1.84 1.184s1.349-.395 1.84-1.184c.523-.832.784-1.915.784-3.248 0-1.333-.261-2.416-.784-3.248Zm3.91-1.52a2.24 2.24 0 0 1 1.648-.672c.651 0 1.2.224 1.648.672.448.448.672.997.672 1.648 0 .651-.224 1.2-.672 1.648a2.24 2.24 0 0 1-1.648.672 2.24 2.24 0 0 1-1.648-.672 2.24 2.24 0 0 1-.672-1.648c0-.651.224-1.2.672-1.648Zm1.648 3.088c.384 0 .704-.139.96-.416.267-.288.4-.629.4-1.024s-.133-.731-.4-1.008a1.231 1.231 0 0 0-.96-.432c-.373 0-.693.144-.96.432-.267.277-.4.613-.4 1.008s.133.736.4 1.024c.267.277.587.416.96.416Zm-.592 6.848 6.224-10.72.624.352-6.224 10.736-.624-.368Zm4.608-3.696a2.24 2.24 0 0 1 1.648-.672c.651 0 1.2.224 1.648.672.448.448.672.997.672 1.648 0 .651-.224 1.2-.672 1.648a2.24 2.24 0 0 1-1.648.672 2.24 2.24 0 0 1-1.648-.672 2.24 2.24 0 0 1-.672-1.648c0-.651.224-1.2.672-1.648Zm1.648 3.088c.384 0 .704-.139.96-.416.267-.288.4-.629.4-1.024s-.133-.731-.4-1.008a1.231 1.231 0 0 0-.96-.432c-.373 0-.693.144-.96.432-.267.277-.4.613-.4 1.008s.133.736.4 1.024c.267.277.587.416.96.416Z" fill="#fff"/><path fill="#AD8467" d="M135 128.5h348v17H135z"/><path d="M495.256 142v-9.552h-1.792l.624-1.12h2.352V142h-1.184Zm10.128 0h-6.896l3.888-4.496c.661-.779 1.077-1.296 1.248-1.552.394-.565.592-1.109.592-1.632 0-.608-.198-1.104-.592-1.488-.395-.395-.907-.592-1.536-.592-.768 0-1.36.315-1.776.944-.224.341-.342.763-.352 1.264h-1.184c.042-.907.309-1.643.8-2.208.64-.725 1.482-1.088 2.528-1.088.949 0 1.733.304 2.352.912.629.597.944 1.355.944 2.272 0 .715-.283 1.477-.848 2.288-.288.395-.774.987-1.456 1.776l-2.224 2.512h4.512V142Zm2.597-10.096a2.242 2.242 0 0 1 1.648-.672c.651 0 1.2.224 1.648.672.448.448.672.997.672 1.648 0 .651-.224 1.2-.672 1.648a2.24 2.24 0 0 1-1.648.672c-.65 0-1.2-.224-1.648-.672a2.24 2.24 0 0 1-.672-1.648c0-.651.224-1.2.672-1.648Zm1.648 3.088c.384 0 .704-.139.96-.416.267-.288.4-.629.4-1.024s-.133-.731-.4-1.008a1.231 1.231 0 0 0-.96-.432c-.373 0-.693.144-.96.432-.266.277-.4.613-.4 1.008s.134.736.4 1.024c.267.277.587.416.96.416Zm-.592 6.848 6.224-10.72.624.352-6.224 10.736-.624-.368Zm4.608-3.696a2.242 2.242 0 0 1 1.648-.672c.651 0 1.2.224 1.648.672.448.448.672.997.672 1.648 0 .651-.224 1.2-.672 1.648a2.24 2.24 0 0 1-1.648.672c-.65 0-1.2-.224-1.648-.672a2.24 2.24 0 0 1-.672-1.648c0-.651.224-1.2.672-1.648Zm1.648 3.088c.384 0 .704-.139.96-.416.267-.288.4-.629.4-1.024s-.133-.731-.4-1.008a1.231 1.231 0 0 0-.96-.432c-.373 0-.693.144-.96.432-.266.277-.4.613-.4 1.008s.134.736.4 1.024c.267.277.587.416.96.416Z" fill="#fff"/><path fill="#AD8467" d="M135 86.5h406v17H135z"/><path d="M553.256 100v-9.552h-1.792l.624-1.12h2.352V100h-1.184Zm9.814-11.264v8.16h1.312v1.088h-1.312V100h-1.184v-2.016h-5.472l6.656-9.248Zm-4.56 8.16h3.376v-4.72l-3.376 4.72Zm7.878-6.992a2.24 2.24 0 0 1 1.648-.672c.65 0 1.2.224 1.648.672.448.448.672.997.672 1.648 0 .65-.224 1.2-.672 1.648a2.242 2.242 0 0 1-1.648.672 2.24 2.24 0 0 1-1.648-.672 2.242 2.242 0 0 1-.673-1.648c0-.65.225-1.2.673-1.648Zm1.648 3.088c.384 0 .704-.139.96-.416.266-.288.4-.63.4-1.024 0-.395-.134-.73-.4-1.008a1.231 1.231 0 0 0-.96-.432 1.26 1.26 0 0 0-.96.432 1.4 1.4 0 0 0-.4 1.008c0 .395.133.736.4 1.024.266.277.586.416.96.416Zm-.592 6.848 6.224-10.72.624.352-6.224 10.736-.624-.368Zm4.608-3.696a2.24 2.24 0 0 1 1.648-.672c.65 0 1.2.224 1.648.672.448.448.672.997.672 1.648 0 .65-.224 1.2-.672 1.648a2.242 2.242 0 0 1-1.648.672 2.24 2.24 0 0 1-1.648-.672 2.24 2.24 0 0 1-.672-1.648c0-.65.224-1.2.672-1.648Zm1.648 3.088c.384 0 .704-.139.96-.416.266-.288.4-.63.4-1.024 0-.395-.134-.73-.4-1.008a1.231 1.231 0 0 0-.96-.432 1.26 1.26 0 0 0-.96.432 1.4 1.4 0 0 0-.4 1.008c0 .395.133.736.4 1.024.266.277.586.416.96.416Z" fill="#fff"/><path fill="#AD8467" d="M135 44.5h435v17H135z"/><path d="M582.256 58v-9.552h-1.792l.624-1.12h2.352V58h-1.184Zm10.502-10.672v1.088h-3.424l-.688 2.304c.181-.043.405-.064.672-.064 1.056 0 1.904.352 2.544 1.056.65.704.976 1.584.976 2.64 0 1.152-.379 2.08-1.136 2.784-.747.704-1.664 1.056-2.752 1.056-.918 0-1.712-.277-2.384-.832a4.405 4.405 0 0 1-.928-1.088l.944-.672c.16.32.4.608.72.864.522.427 1.098.64 1.728.64.746 0 1.37-.267 1.872-.8.501-.533.752-1.179.752-1.936 0-.768-.251-1.397-.752-1.888-.491-.49-1.115-.736-1.872-.736-.672 0-1.36.245-2.064.736l1.552-5.152h4.24Zm2.63.576a2.24 2.24 0 0 1 1.648-.672c.65 0 1.2.224 1.648.672.448.448.672.997.672 1.648 0 .65-.224 1.2-.672 1.648a2.242 2.242 0 0 1-1.648.672 2.24 2.24 0 0 1-1.648-.672 2.242 2.242 0 0 1-.673-1.648c0-.65.225-1.2.673-1.648Zm1.648 3.088c.384 0 .704-.139.96-.416.266-.288.4-.63.4-1.024 0-.395-.134-.73-.4-1.008a1.231 1.231 0 0 0-.96-.432 1.26 1.26 0 0 0-.96.432 1.4 1.4 0 0 0-.4 1.008c0 .395.133.736.4 1.024.266.277.586.416.96.416Zm-.592 6.848 6.224-10.72.624.352-6.224 10.736-.624-.368Zm4.608-3.696a2.24 2.24 0 0 1 1.648-.672c.65 0 1.2.224 1.648.672.448.448.672.997.672 1.648 0 .65-.224 1.2-.672 1.648a2.242 2.242 0 0 1-1.648.672 2.24 2.24 0 0 1-1.648-.672 2.24 2.24 0 0 1-.672-1.648c0-.65.224-1.2.672-1.648Zm1.648 3.088c.384 0 .704-.139.96-.416.266-.288.4-.63.4-1.024 0-.395-.134-.73-.4-1.008a1.231 1.231 0 0 0-.96-.432 1.26 1.26 0 0 0-.96.432 1.4 1.4 0 0 0-.4 1.008c0 .395.133.736.4 1.024.266.277.586.416.96.416Z" fill="#fff"/><path fill="#AD8467" d="M135 2.5h522v17H135z"/><path d="M669.256 16V6.448h-1.792l.624-1.12h2.352V16h-1.184Zm9.03-5.552c1.077.48 1.616 1.35 1.616 2.608 0 .885-.288 1.632-.864 2.24-.566.597-1.366.896-2.4.896-1.035 0-1.84-.299-2.416-.896-.566-.608-.848-1.355-.848-2.24 0-1.259.538-2.128 1.616-2.608-.864-.501-1.296-1.28-1.296-2.336 0-.81.261-1.504.784-2.08.522-.587 1.242-.88 2.16-.88.917 0 1.637.293 2.16.88.522.576.784 1.27.784 2.08 0 1.056-.432 1.835-1.296 2.336Zm-2.96-1.008c.352.352.789.528 1.312.528.522 0 .954-.176 1.296-.528.352-.352.528-.79.528-1.312 0-.565-.182-1.019-.544-1.36a1.744 1.744 0 0 0-1.28-.528c-.502 0-.934.176-1.296.528-.352.341-.528.795-.528 1.36 0 .523.17.96.512 1.312Zm-.192 5.088c.384.384.885.576 1.504.576.618 0 1.12-.192 1.504-.576.384-.395.576-.896.576-1.504 0-.597-.198-1.083-.592-1.456-.384-.384-.88-.576-1.488-.576s-1.11.192-1.504.576c-.384.373-.576.859-.576 1.456 0 .608.192 1.11.576 1.504Zm7.254-8.624a2.24 2.24 0 0 1 1.648-.672c.65 0 1.2.224 1.648.672.448.448.672.997.672 1.648 0 .65-.224 1.2-.672 1.648a2.242 2.242 0 0 1-1.648.672 2.24 2.24 0 0 1-1.648-.672 2.242 2.242 0 0 1-.673-1.648c0-.65.225-1.2.673-1.648Zm1.648 3.088c.384 0 .704-.139.96-.416.266-.288.4-.63.4-1.024 0-.395-.134-.73-.4-1.008a1.231 1.231 0 0 0-.96-.432 1.26 1.26 0 0 0-.96.432 1.4 1.4 0 0 0-.4 1.008c0 .395.133.736.4 1.024.266.277.586.416.96.416Zm-.592 6.848 6.224-10.72.624.352-6.224 10.736-.624-.368Zm4.608-3.696a2.24 2.24 0 0 1 1.648-.672c.65 0 1.2.224 1.648.672.448.448.672.997.672 1.648 0 .65-.224 1.2-.672 1.648a2.242 2.242 0 0 1-1.648.672 2.24 2.24 0 0 1-1.648-.672 2.24 2.24 0 0 1-.672-1.648c0-.65.224-1.2.672-1.648Zm1.648 3.088c.384 0 .704-.139.96-.416.266-.288.4-.63.4-1.024 0-.395-.134-.73-.4-1.008a1.231 1.231 0 0 0-.96-.432 1.26 1.26 0 0 0-.96.432 1.4 1.4 0 0 0-.4 1.008c0 .395.133.736.4 1.024.266.277.586.416.96.416ZM53.625 268v-1.504h-.288c-.758 0-1.435-.091-2.032-.272-.587-.181-1.056-.411-1.408-.688a3.722 3.722 0 0 1-.88-.992 4.154 4.154 0 0 1-.464-1.104 5.47 5.47 0 0 1 0-2.192c.085-.363.24-.736.464-1.12.234-.384.528-.715.88-.992s.821-.507 1.408-.688c.597-.181 1.274-.272 2.032-.272h.288v-1.28h1.184v1.28h.288c.757 0 1.429.091 2.016.272.597.181 1.072.411 1.424.688.352.277.64.608.864.992.234.384.389.757.464 1.12a4.6 4.6 0 0 1 .128 1.088c0 .373-.043.741-.128 1.104a3.55 3.55 0 0 1-.464 1.104 3.49 3.49 0 0 1-.864.992c-.352.277-.827.507-1.424.688-.587.181-1.259.272-2.016.272h-.288V268h-1.184Zm0-2.624v-6.08h-.32c-.694 0-1.291.091-1.792.272-.502.181-.88.432-1.136.752a3.169 3.169 0 0 0-.56.96c-.107.331-.16.683-.16 1.056s.053.725.16 1.056c.117.331.304.656.56.976.256.309.634.555 1.136.736.501.181 1.098.272 1.792.272h.32Zm1.184-6.08v6.08h.32c.693 0 1.29-.091 1.792-.272.501-.181.88-.427 1.136-.736.256-.32.437-.645.544-.976.117-.331.176-.683.176-1.056s-.059-.725-.176-1.056a2.904 2.904 0 0 0-.544-.96c-.256-.32-.635-.571-1.136-.752-.502-.181-1.099-.272-1.792-.272h-.32ZM69.597 268v-8.144l-7.424 8.624v-11.152h1.184v8.176l7.424-8.624V268h-1.184Zm5.12-10.672v4.336h5.471v-4.336h1.184V268h-1.184v-5.216h-5.472V268h-1.184v-10.672h1.184ZM91.261 268l-1.248-3.008H85.47L84.19 268h-1.312l4.912-11.184L92.574 268h-1.312Zm-5.328-4.128h3.616l-1.792-4.272-1.824 4.272Zm9.33-6.544v4.336h5.471v-4.336h1.184V268h-1.184v-5.216h-5.472V268H94.08v-10.672h1.184Zm17.569.88v1.472a4.921 4.921 0 0 0-1.392-.992 4.4 4.4 0 0 0-1.84-.416c-1.227 0-2.251.432-3.072 1.296-.811.853-1.216 1.904-1.216 3.152 0 1.344.443 2.405 1.328 3.184.896.779 1.888 1.168 2.976 1.168.683 0 1.344-.165 1.984-.496a4.73 4.73 0 0 0 1.232-.896v1.472a5.413 5.413 0 0 1-3.216 1.04c-1.579 0-2.896-.528-3.952-1.584-1.045-1.056-1.568-2.357-1.568-3.904 0-1.589.528-2.912 1.584-3.968 1.067-1.056 2.4-1.584 4-1.584 1.173 0 2.224.352 3.152 1.056Zm2.184 9.792v-10.672h1.184v4.432h1.44c2.453 0 3.68 1.003 3.68 3.008 0 1.003-.315 1.792-.944 2.368-.619.576-1.456.864-2.512.864h-2.848Zm1.184-5.12v4h1.376c.906 0 1.562-.197 1.968-.592.373-.352.56-.859.56-1.52 0-.768-.288-1.307-.864-1.616-.331-.181-.928-.272-1.792-.272H116.2Zm6.24-5.552h1.184V268h-1.184v-10.672Zm-119.614-42v4.336h5.472v-4.336h1.184V226H8.298v-5.216H2.826V226H1.642v-10.672h1.184Zm14.945 0v1.12H13.42v3.168h4.224v1.12H13.42v4.144h4.352V226h-5.536v-10.672h5.536Zm3.111 0h6.496v9.552h1.216v3.36h-1.12V226h-7.552v2.24h-1.12v-3.36c.363.011.694-.117.992-.384a2.85 2.85 0 0 0 .704-1.056c.256-.651.384-1.584.384-2.8v-5.312Zm1.184 1.12v4.192c0 1.312-.128 2.304-.384 2.976-.181.48-.453.901-.816 1.264h5.328v-8.432h-4.128Zm8.123-1.12h1.92c1.066 0 1.882.224 2.447.672.64.491.96 1.227.96 2.208 0 .917-.352 1.616-1.055 2.096.682.171 1.189.517 1.52 1.04.34.512.511 1.061.511 1.648 0 .48-.106.923-.32 1.328a2.845 2.845 0 0 1-.767.976c-.598.469-1.451.704-2.56.704h-2.656v-10.672Zm1.183 1.12v3.568h.897c.16 0 .314-.005.464-.016a3.35 3.35 0 0 0 .528-.128c.213-.075.394-.171.543-.288.16-.117.294-.293.4-.528.107-.235.16-.507.16-.816 0-.331-.063-.613-.191-.848-.129-.245-.273-.427-.433-.544a1.808 1.808 0 0 0-.576-.272 3.08 3.08 0 0 0-.511-.112 3.768 3.768 0 0 0-.352-.016h-.929Zm0 4.624v3.808h1.36c.864 0 1.489-.149 1.873-.448.469-.341.704-.832.704-1.472 0-.715-.304-1.237-.912-1.568-.384-.213-.987-.32-1.808-.32h-1.216ZM46.097 226v-8.144l-7.424 8.624v-11.152h1.184v8.176l7.424-8.624V226h-1.184Zm8.447-10.672h1.184v4.576l4.064-4.576h1.472l-4.48 4.976L61.392 226h-1.504l-3.904-4.88-.256.288V226h-1.184v-4.592l-.256-.288-3.904 4.88H48.88l4.608-5.696-4.48-4.976h1.472l4.064 4.576v-4.576ZM70.41 226v-8.144l-7.424 8.624v-11.152h1.184v8.176l7.424-8.624V226H70.41Zm4.784 0h-1.216l1.776-11.264 4.096 9.008 4.176-9.024L85.689 226h-1.216l-1.008-7.424-3.632 7.872-3.584-7.872L75.193 226Zm21.876-1.392c-1.066 1.056-2.378 1.584-3.936 1.584-1.557 0-2.874-.528-3.952-1.584-1.066-1.056-1.6-2.368-1.6-3.936 0-1.579.539-2.891 1.616-3.936 1.078-1.056 2.39-1.584 3.936-1.584 1.547 0 2.859.528 3.936 1.584 1.078 1.045 1.616 2.357 1.616 3.936 0 1.568-.538 2.88-1.616 3.936Zm-.864-7.056c-.842-.853-1.866-1.28-3.072-1.28-1.205 0-2.23.427-3.072 1.28-.842.853-1.264 1.893-1.264 3.12s.422 2.267 1.264 3.12c.843.853 1.867 1.28 3.072 1.28 1.206 0 2.23-.427 3.072-1.28.843-.853 1.264-1.893 1.264-3.12s-.421-2.267-1.264-3.12Zm12.815-1.344v1.472a4.894 4.894 0 0 0-1.392-.992 4.4 4.4 0 0 0-1.84-.416c-1.226 0-2.25.432-3.072 1.296-.81.853-1.216 1.904-1.216 3.152 0 1.344.443 2.405 1.328 3.184.896.779 1.888 1.168 2.976 1.168.683 0 1.344-.165 1.984-.496a4.73 4.73 0 0 0 1.232-.896v1.472a5.409 5.409 0 0 1-3.216 1.04c-1.578 0-2.896-.528-3.952-1.584-1.045-1.056-1.568-2.357-1.568-3.904 0-1.589.528-2.912 1.584-3.968 1.067-1.056 2.4-1.584 4-1.584a5.08 5.08 0 0 1 3.152 1.056Zm7.4.24h-2.592V226h-1.184v-9.552h-2.592v-1.12h6.368v1.12Zm1.597 9.552v-10.672h1.184v4.432h1.44c2.453 0 3.68 1.003 3.68 3.008 0 1.003-.315 1.792-.944 2.368-.619.576-1.456.864-2.512.864h-2.848Zm1.184-5.12v4h1.376c.906 0 1.562-.197 1.968-.592.373-.352.56-.859.56-1.52 0-.768-.288-1.307-.864-1.616-.331-.181-.928-.272-1.792-.272h-1.248Zm-3.576-47.552h1.184V184h-1.184v-10.672Zm9.154 1.12h-2.592V184h-1.184v-9.552h-2.592v-1.12h6.368v1.12Zm-65.032-42h-2.592V142h-1.184v-9.552H53.38v-1.12h6.368v1.12Zm9.946 8.16c-1.066 1.056-2.378 1.584-3.936 1.584-1.557 0-2.874-.528-3.952-1.584-1.066-1.056-1.6-2.368-1.6-3.936 0-1.579.539-2.891 1.616-3.936 1.078-1.056 2.39-1.584 3.936-1.584 1.547 0 2.859.528 3.936 1.584 1.078 1.045 1.616 2.357 1.616 3.936 0 1.568-.538 2.88-1.616 3.936Zm-.864-7.056c-.842-.853-1.866-1.28-3.072-1.28-1.205 0-2.23.427-3.072 1.28-.842.853-1.264 1.893-1.264 3.12s.422 2.267 1.264 3.12c.843.853 1.867 1.28 3.072 1.28 1.206 0 2.23-.427 3.072-1.28.843-.853 1.264-1.893 1.264-3.12s-.421-2.267-1.264-3.12Zm4.655-2.224h1.936c1.216 0 2.112.251 2.688.752.651.555.976 1.317.976 2.288 0 .832-.282 1.541-.848 2.128-.554.576-1.397.864-2.528.864h-1.04V142h-1.184v-10.672Zm1.184 1.12v3.792h.976c.704 0 1.254-.171 1.648-.512.406-.341.608-.816.608-1.424 0-1.237-.784-1.856-2.352-1.856h-.88ZM80.782 142v-10.672h4.864v1.12h-3.68V142h-1.184Zm14.819-1.392c-1.067 1.056-2.38 1.584-3.936 1.584-1.558 0-2.875-.528-3.953-1.584-1.066-1.056-1.6-2.368-1.6-3.936 0-1.579.54-2.891 1.617-3.936 1.077-1.056 2.389-1.584 3.936-1.584 1.546 0 2.858.528 3.935 1.584 1.078 1.045 1.617 2.357 1.617 3.936 0 1.568-.54 2.88-1.617 3.936Zm-.864-7.056c-.843-.853-1.867-1.28-3.072-1.28-1.206 0-2.23.427-3.073 1.28-.842.853-1.263 1.893-1.263 3.12s.42 2.267 1.264 3.12c.842.853 1.866 1.28 3.072 1.28 1.205 0 2.229-.427 3.072-1.28.842-.853 1.264-1.893 1.264-3.12s-.422-2.267-1.264-3.12Zm4.655-2.224h1.92c1.066 0 1.882.224 2.448.672.64.491.96 1.227.96 2.208 0 .917-.352 1.616-1.056 2.096.682.171 1.189.517 1.52 1.04a2.918 2.918 0 0 1 .192 2.976 2.852 2.852 0 0 1-.768.976c-.598.469-1.451.704-2.56.704h-2.656v-10.672Zm1.184 1.12v3.568h.896c.16 0 .314-.005.464-.016.149-.021.325-.064.528-.128.213-.075.394-.171.544-.288.16-.117.293-.293.4-.528.106-.235.16-.507.16-.816 0-.331-.064-.613-.192-.848-.128-.245-.272-.427-.432-.544a1.808 1.808 0 0 0-.576-.272 3.086 3.086 0 0 0-.512-.112 3.784 3.784 0 0 0-.352-.016h-.928Zm0 4.624v3.808h1.36c.864 0 1.488-.149 1.872-.448.469-.341.704-.832.704-1.472 0-.715-.304-1.237-.912-1.568-.384-.213-.987-.32-1.808-.32h-1.216Zm8.388-5.744h6.496V142h-1.184v-9.552h-4.128v5.728c0 .501-.005.88-.016 1.136-.011.245-.096.597-.256 1.056a2.477 2.477 0 0 1-.688 1.088c-.48.427-1.088.64-1.824.64-.171 0-.384-.032-.64-.096v-1.12c.213.064.411.096.592.096.416 0 .763-.139 1.04-.416.192-.192.336-.464.432-.816.096-.363.149-.667.16-.912.011-.245.016-.624.016-1.136v-6.368Zm8.36 10.672 3.136-4.736c-.726-.075-1.323-.299-1.792-.672-.619-.501-.928-1.227-.928-2.176 0-.875.245-1.584.736-2.128.576-.64 1.461-.96 2.656-.96h2.496V142h-1.184v-4.672h-.64l-3.04 4.672h-1.44Zm5.12-9.552h-1.152c-.854 0-1.462.187-1.824.56-.342.363-.512.821-.512 1.376 0 .629.202 1.109.608 1.44.384.299.928.448 1.632.448h1.248v-3.824ZM68.44 89.328h1.44l3.329 6.288 2.784-6.288h1.28L72.456 100h-1.28l1.36-2.976-4.097-7.696Zm18.487.88v1.472a4.91 4.91 0 0 0-1.392-.992 4.397 4.397 0 0 0-1.84-.416c-1.227 0-2.251.432-3.072 1.296-.811.853-1.216 1.904-1.216 3.152 0 1.344.442 2.405 1.328 3.184.896.779 1.888 1.168 2.976 1.168a4.27 4.27 0 0 0 1.984-.496 4.727 4.727 0 0 0 1.232-.896v1.472a5.41 5.41 0 0 1-3.216 1.04c-1.579 0-2.896-.528-3.952-1.584-1.046-1.056-1.568-2.357-1.568-3.904 0-1.59.528-2.912 1.584-3.968 1.066-1.056 2.4-1.584 4-1.584a5.08 5.08 0 0 1 3.152 1.056Zm3.271-.88h6.496V100H95.51v-9.552h-4.128v5.728c0 .501-.005.88-.016 1.136-.01.245-.096.597-.256 1.056a2.48 2.48 0 0 1-.688 1.088c-.48.427-1.088.64-1.824.64a2.74 2.74 0 0 1-.64-.096v-1.12c.214.064.411.096.592.096.416 0 .763-.139 1.04-.416.192-.192.336-.464.432-.816.096-.363.15-.667.16-.912.011-.245.016-.624.016-1.136v-6.368Zm8.008 0h1.44l3.328 6.288 2.784-6.288h1.28L102.222 100h-1.28l1.36-2.976-4.096-7.696ZM108.548 100V89.328h4.864v1.12h-3.68V100h-1.184Zm13.893 0v-8.144l-7.424 8.624V89.328h1.184v8.176l7.424-8.624V100h-1.184ZM5.439 47.328h7.84V58h-1.184v-9.552H6.622V58H5.44V47.328Zm10.593 0h1.936c1.216 0 2.112.25 2.688.752.65.555.976 1.317.976 2.288 0 .832-.282 1.541-.848 2.128-.554.576-1.397.864-2.528.864h-1.04V58h-1.184V47.328Zm1.184 1.12v3.792h.976c.704 0 1.254-.17 1.648-.512.406-.341.608-.816.608-1.424 0-1.237-.784-1.856-2.352-1.856h-.88Zm15.025 8.16c-1.067 1.056-2.378 1.584-3.936 1.584-1.557 0-2.875-.528-3.952-1.584-1.067-1.056-1.6-2.368-1.6-3.936 0-1.579.539-2.89 1.616-3.936 1.078-1.056 2.39-1.584 3.936-1.584 1.547 0 2.859.528 3.936 1.584 1.078 1.045 1.616 2.357 1.616 3.936 0 1.568-.538 2.88-1.616 3.936Zm-.864-7.056c-.842-.853-1.866-1.28-3.072-1.28-1.205 0-2.23.427-3.072 1.28-.843.853-1.264 1.893-1.264 3.12s.421 2.267 1.264 3.12c.843.853 1.867 1.28 3.072 1.28 1.206 0 2.23-.427 3.072-1.28.843-.853 1.264-1.893 1.264-3.12s-.421-2.267-1.264-3.12ZM43.457 58v-8.144l-7.425 8.624V47.328h1.184v8.176l7.424-8.624V58h-1.184Zm5.07-8.576-.911-.72c.693-1.035 1.712-1.552 3.056-1.552.96 0 1.712.25 2.256.752.554.501.832 1.157.832 1.968 0 .523-.139.981-.416 1.376a2.58 2.58 0 0 1-1.056.88c.693.16 1.221.49 1.584.992.373.501.56 1.088.56 1.76 0 1.11-.443 1.979-1.328 2.608-.683.47-1.494.704-2.432.704-.971 0-1.776-.245-2.416-.736a4.614 4.614 0 0 1-1.44-1.824l1.152-.512a2.91 2.91 0 0 0 1.056 1.424c.49.352 1.056.528 1.696.528.65 0 1.194-.15 1.632-.448.576-.405.864-.976.864-1.712 0-1.397-.95-2.096-2.848-2.096h-.96v-1.12h.96c.704 0 1.242-.17 1.616-.512a1.68 1.68 0 0 0 .56-1.296c0-.459-.144-.832-.432-1.12-.32-.33-.8-.496-1.44-.496-.896 0-1.611.384-2.144 1.152Zm8.083-2.096h1.92c1.067 0 1.883.224 2.448.672.64.49.96 1.227.96 2.208 0 .917-.352 1.616-1.056 2.096.683.17 1.19.517 1.52 1.04a2.91 2.91 0 0 1 .512 1.648c0 .48-.106.923-.32 1.328-.202.405-.458.73-.768.976-.597.47-1.45.704-2.56.704H56.61V47.328Zm1.184 1.12v3.568h.896c.16 0 .315-.005.464-.016.15-.021.326-.064.528-.128.214-.075.395-.17.544-.288.16-.117.294-.293.4-.528.107-.235.16-.507.16-.816 0-.33-.064-.613-.192-.848-.128-.245-.272-.427-.432-.544a1.802 1.802 0 0 0-.576-.272 3.049 3.049 0 0 0-.512-.112 3.876 3.876 0 0 0-.352-.016h-.928Zm0 4.624v3.808h1.36c.864 0 1.488-.15 1.872-.448.47-.341.704-.832.704-1.472 0-.715-.304-1.237-.912-1.568-.384-.213-.986-.32-1.808-.32h-1.216Zm16.213 3.536c-1.067 1.056-2.379 1.584-3.936 1.584-1.558 0-2.875-.528-3.952-1.584-1.067-1.056-1.6-2.368-1.6-3.936 0-1.579.538-2.89 1.616-3.936 1.077-1.056 2.39-1.584 3.936-1.584 1.546 0 2.858.528 3.936 1.584 1.077 1.045 1.616 2.357 1.616 3.936 0 1.568-.539 2.88-1.616 3.936Zm-.864-7.056c-.843-.853-1.867-1.28-3.072-1.28-1.206 0-2.23.427-3.072 1.28-.843.853-1.264 1.893-1.264 3.12s.421 2.267 1.264 3.12c.842.853 1.866 1.28 3.072 1.28 1.205 0 2.23-.427 3.072-1.28.842-.853 1.264-1.893 1.264-3.12s-.422-2.267-1.264-3.12Zm5.583-2.224h6.496v9.552h1.216v3.36h-1.12V58h-7.552v2.24h-1.12v-3.36c.362.01.693-.117.992-.384a2.87 2.87 0 0 0 .704-1.056c.256-.65.384-1.584.384-2.8v-5.312Zm1.184 1.12v4.192c0 1.312-.128 2.304-.384 2.976-.181.48-.453.901-.816 1.264h5.328v-8.432H79.91Zm16.282-.24v1.472a4.913 4.913 0 0 0-1.392-.992 4.398 4.398 0 0 0-1.84-.416c-1.226 0-2.25.432-3.072 1.296-.81.853-1.216 1.904-1.216 3.152 0 1.344.443 2.405 1.328 3.184.896.779 1.888 1.168 2.976 1.168.683 0 1.344-.165 1.984-.496a4.729 4.729 0 0 0 1.232-.896v1.472a5.41 5.41 0 0 1-3.216 1.04c-1.578 0-2.896-.528-3.952-1.584-1.045-1.056-1.568-2.357-1.568-3.904 0-1.59.528-2.912 1.584-3.968 1.067-1.056 2.4-1.584 4-1.584a5.08 5.08 0 0 1 3.152 1.056Zm7.4.24H101V58h-1.184v-9.552h-2.592v-1.12h6.368v1.12Zm1.597-1.12h1.92c1.066 0 1.882.224 2.448.672.64.49.96 1.227.96 2.208 0 .917-.352 1.616-1.056 2.096.682.17 1.189.517 1.52 1.04a2.919 2.919 0 0 1 .192 2.976c-.203.405-.459.73-.768.976-.598.47-1.451.704-2.56.704h-2.656V47.328Zm1.184 1.12v3.568h.896c.16 0 .314-.005.464-.016a3.4 3.4 0 0 0 .528-.128 1.89 1.89 0 0 0 .544-.288c.16-.117.293-.293.4-.528.106-.235.16-.507.16-.816 0-.33-.064-.613-.192-.848-.128-.245-.272-.427-.432-.544a1.802 1.802 0 0 0-.576-.272 3.055 3.055 0 0 0-.512-.112 3.89 3.89 0 0 0-.352-.016h-.928Zm0 4.624v3.808h1.36c.864 0 1.488-.15 1.872-.448.469-.341.704-.832.704-1.472 0-.715-.304-1.237-.912-1.568-.384-.213-.987-.32-1.808-.32h-1.216Zm16.212 3.536c-1.067 1.056-2.379 1.584-3.936 1.584s-2.875-.528-3.952-1.584c-1.067-1.056-1.6-2.368-1.6-3.936 0-1.579.539-2.89 1.616-3.936 1.077-1.056 2.389-1.584 3.936-1.584 1.547 0 2.859.528 3.936 1.584 1.077 1.045 1.616 2.357 1.616 3.936 0 1.568-.539 2.88-1.616 3.936Zm-.864-7.056c-.843-.853-1.867-1.28-3.072-1.28s-2.229.427-3.072 1.28-1.264 1.893-1.264 3.12.421 2.267 1.264 3.12c.843.853 1.867 1.28 3.072 1.28s2.229-.427 3.072-1.28 1.264-1.893 1.264-3.12-.421-2.267-1.264-3.12ZM100.314 5.328h1.92c1.066 0 1.882.224 2.448.672.64.49.96 1.227.96 2.208 0 .917-.352 1.616-1.056 2.096.682.17 1.189.517 1.52 1.04a2.919 2.919 0 0 1 .192 2.976c-.203.405-.459.73-.768.976-.598.47-1.451.704-2.56.704h-2.656V5.328Zm1.184 1.12v3.568h.896c.16 0 .314-.005.464-.016.149-.021.325-.064.528-.128a1.88 1.88 0 0 0 .544-.288c.16-.117.293-.293.4-.528.106-.235.16-.507.16-.816 0-.33-.064-.613-.192-.848-.128-.245-.272-.427-.432-.544a1.801 1.801 0 0 0-.576-.272 3.052 3.052 0 0 0-.512-.112 3.901 3.901 0 0 0-.352-.016h-.928Zm0 4.624v3.808h1.36c.864 0 1.488-.15 1.872-.448.469-.341.704-.832.704-1.472 0-.715-.304-1.237-.912-1.568-.384-.213-.987-.32-1.808-.32h-1.216ZM115.118 16h-6.896l3.888-4.496c.661-.779 1.077-1.296 1.248-1.552.395-.565.592-1.11.592-1.632 0-.608-.197-1.104-.592-1.488-.395-.395-.907-.592-1.536-.592-.768 0-1.36.315-1.776.944-.224.341-.341.763-.352 1.264h-1.184c.043-.907.309-1.643.8-2.208.64-.725 1.483-1.088 2.528-1.088.949 0 1.733.304 2.352.912.629.597.944 1.355.944 2.272 0 .715-.283 1.477-.848 2.288-.288.395-.773.987-1.456 1.776l-2.224 2.512h4.512V16Zm2.774-10.672h1.92c1.066 0 1.882.224 2.448.672.64.49.96 1.227.96 2.208 0 .917-.352 1.616-1.056 2.096.682.17 1.189.517 1.52 1.04a2.919 2.919 0 0 1 .192 2.976c-.203.405-.459.73-.768.976-.598.47-1.451.704-2.56.704h-2.656V5.328Zm1.184 1.12v3.568h.896c.16 0 .314-.005.464-.016.149-.021.325-.064.528-.128a1.88 1.88 0 0 0 .544-.288c.16-.117.293-.293.4-.528.106-.235.16-.507.16-.816 0-.33-.064-.613-.192-.848-.128-.245-.272-.427-.432-.544a1.801 1.801 0 0 0-.576-.272 3.052 3.052 0 0 0-.512-.112 3.901 3.901 0 0 0-.352-.016h-.928Zm0 4.624v3.808h1.36c.864 0 1.488-.15 1.872-.448.469-.341.704-.832.704-1.472 0-.715-.304-1.237-.912-1.568-.384-.213-.987-.32-1.808-.32h-1.216Z" fill="#fff"/></svg>