<svg width="309" height="316" viewBox="0 0 309 316" fill="none" xmlns="http://www.w3.org/2000/svg">
<g clip-path="url(#clip0_1_342)">
<path d="M147.027 291.466C72.0879 291.466 11.1252 230.479 11.1252 155.509C11.1252 80.5398 72.0879 19.5525 147.027 19.5525C221.967 19.5525 282.929 80.5398 282.929 155.509C282.929 230.479 221.967 291.466 147.027 291.466ZM147.027 38.4927C82.5342 38.4927 30.0577 90.9903 30.0577 155.509C30.0577 220.029 82.5342 272.526 147.027 272.526C211.52 272.526 263.997 220.029 263.997 155.509C263.997 90.9903 211.52 38.4927 147.027 38.4927Z" fill="white"/>
<path d="M146.838 291.266C71.8987 291.266 10.936 230.279 10.936 155.309C10.936 80.3396 71.8987 19.3523 146.838 19.3523V38.2925C82.345 38.2925 29.8685 90.7901 29.8685 155.309C29.8685 219.828 82.345 272.326 146.838 272.326C211.331 272.326 263.807 219.828 263.807 155.309C263.807 143.422 262.037 131.701 258.54 120.47L276.615 114.844C280.68 127.902 282.74 141.516 282.74 155.309C282.74 230.279 221.777 291.266 146.838 291.266Z" fill="#AD8467"/>
<path d="M11.1033 103.547L7.84026 96.8513C7.60639 96.3834 6.98273 95.1355 6.65976 94.6453C6.10293 93.754 5.56836 93.3752 5.06721 93.1635C3.68625 92.573 2.2496 93.1412 1.62594 94.5896C1.25843 95.4586 1.33639 96.3388 1.83754 97.0964C2.10483 97.4975 2.50575 97.8429 3.11827 98.1214L2.53916 99.4918C1.32525 98.9124 0.735003 98.1994 0.389763 97.4863C0.0222496 96.7176 -0.278443 95.57 0.389763 94.0325C1.31411 91.86 3.56374 90.8907 5.67973 91.8043C6.51499 92.1608 7.16092 92.7179 7.89595 93.91C8.3971 94.7344 8.86484 95.7149 9.23236 96.4613L11.0365 100.261L13.2527 95.0575L14.5001 95.5923L11.1145 103.547H11.1033Z" fill="#E7D7C5"/>
<path d="M14.5669 91.3922C13.0189 91.5816 11.2816 91.1916 9.58877 90.3115C7.89598 89.4313 6.58184 88.228 5.85795 86.8465C5.01156 85.2533 5.17861 83.8272 5.66863 82.8802C6.15864 81.9332 7.23891 80.9862 9.03193 80.7634C10.5799 80.574 12.3173 80.9639 14.0101 81.8441C15.7029 82.7243 17.017 83.9275 17.7409 85.309C18.5873 86.9022 18.4314 88.3395 17.9302 89.2753C17.4402 90.2223 16.3599 91.1693 14.5669 91.3922ZM7.12754 86.2449C7.80689 87.4147 9.03193 88.3506 10.2792 88.9968C11.5266 89.643 12.9966 90.1221 14.3442 90.0107C15.6694 89.9104 16.4045 89.253 16.7274 88.6514C17.0393 88.0498 17.1506 87.0582 16.4824 85.9218C15.8031 84.752 14.5669 83.8161 13.3307 83.1699C12.0834 82.5237 10.6134 82.0446 9.2658 82.156C7.95166 82.2563 7.2055 82.9137 6.88253 83.5153C6.5707 84.1169 6.45934 85.1085 7.12754 86.2449Z" fill="#E7D7C5"/>
<path d="M14.6785 73.1865C16.0483 74.0555 16.4492 75.8269 15.5805 77.1973C14.7119 78.5677 12.9411 78.9688 11.5713 78.0997C10.2015 77.2307 9.80055 75.4593 10.6692 74.0889C11.5379 72.7185 13.3086 72.3174 14.6785 73.1865ZM14.0325 74.2003C13.1973 73.6767 12.1281 73.8438 11.5936 74.6682C11.0924 75.4593 11.3597 76.54 12.2061 77.0748C13.0525 77.6095 14.1328 77.3979 14.645 76.6068C15.1685 75.7824 14.8678 74.7239 14.0325 74.2003ZM14.3221 68.0503L15.1128 67.627L22.296 81.4199L21.483 81.8321L14.3221 68.0503ZM25.0802 71.3816C26.45 72.2506 26.8509 74.022 25.9711 75.3924C25.0913 76.7628 23.3317 77.1639 21.9619 76.2949C20.5921 75.4258 20.1912 73.6544 21.0598 72.284C21.9285 70.9136 23.6992 70.5125 25.0691 71.3816H25.0802ZM24.4343 72.3954C23.599 71.8718 22.5299 72.0389 21.9953 72.8634C21.4942 73.6544 21.7614 74.7351 22.6078 75.2699C23.4542 75.8046 24.5345 75.593 25.0468 74.8019C25.5702 73.9663 25.2695 72.9191 24.4343 72.3954Z" fill="#E7D7C5"/>
<path d="M25.3137 54.6698L26.6946 59.7503C26.8394 59.3826 27.0399 59.0484 27.296 58.7141C28.9108 56.7198 31.5169 56.5638 33.4546 58.1348C35.5261 59.8171 35.8045 62.5244 34.1229 64.5967C32.1405 67.0366 29.3006 66.6467 27.6747 65.3209C27.2849 65.0089 26.4496 64.1956 25.993 62.5244L23.955 55.0041L25.3137 54.6587V54.6698ZM32.5526 59.3157C31.1716 58.1905 29.3229 58.391 28.1758 59.8171C27.0287 61.2432 27.2626 63.0815 28.6102 64.1733C29.9911 65.2986 31.8844 65.1983 33.0537 63.75C34.2119 62.3127 33.9558 60.4522 32.5526 59.3046V59.3157Z" fill="#E7D7C5"/>
<path d="M37.6426 57.3447C36.1057 57.0995 34.5354 56.2528 33.1545 54.9381C31.7735 53.6235 30.838 52.1083 30.5039 50.5819C30.1253 48.8216 30.671 47.4846 31.406 46.7159C32.141 45.9471 33.444 45.3232 35.2148 45.6018C36.7516 45.8469 38.3219 46.6936 39.7029 48.0083C41.0838 49.3229 42.0193 50.8382 42.3534 52.3645C42.7321 54.1248 42.1864 55.4618 41.4514 56.2305C40.7163 56.9993 39.4133 57.6232 37.6426 57.3447ZM31.8849 50.3479C32.219 51.6626 33.1433 52.8993 34.1679 53.8574C35.1925 54.8267 36.4732 55.6846 37.7985 55.9409C39.1015 56.2082 39.9924 55.7849 40.4602 55.2835C40.9279 54.7933 41.2954 53.8686 40.9725 52.5873C40.6384 51.2727 39.714 50.036 38.6894 49.0778C37.6649 48.1085 36.3841 47.2507 35.0589 46.9944C33.7559 46.727 32.8649 47.1504 32.3972 47.6517C31.9294 48.142 31.5619 49.0667 31.8849 50.3479Z" fill="#E7D7C5"/>
<path d="M42.2525 47.9409L45.4599 44.9216L46.4733 46.0023L43.2659 49.0216L42.2525 47.9409Z" fill="#E7D7C5"/>
<path d="M45.6941 35.4744L43.979 36.9116L43.6783 35.3296L45.9391 33.4355L54.5144 43.6855L53.3785 44.6325L45.6941 35.4633V35.4744Z" fill="#E7D7C5"/>
<path d="M55.1938 28.076L53.3674 29.3795L53.1892 27.7863L55.5836 26.0706L63.3682 36.9444L62.1654 37.8135L55.1938 28.076Z" fill="#E7D7C5"/>
<path d="M69.6382 32.1652L70.0503 26.9177C69.783 27.2185 69.4934 27.4636 69.137 27.6864C66.9431 29.0234 64.4373 28.288 63.1455 26.1601C61.7645 23.8761 62.4104 21.2356 64.6935 19.8541C67.3886 18.2163 69.9278 19.5421 71.0192 21.347C71.2753 21.7704 71.8099 22.84 71.6651 24.5446L71.0414 32.2878L69.6493 32.1652H69.6382ZM64.3816 25.3579C65.306 26.8842 67.1101 27.3076 68.6693 26.3718C70.2284 25.4247 70.6294 23.6087 69.7273 22.1158C68.8029 20.5894 66.9988 20.0435 65.3951 21.0128C63.8137 21.9709 63.435 23.8204 64.3705 25.3579H64.3816Z" fill="#E7D7C5"/>
<path d="M81.4431 25.8701L77.7568 12.066L87.0226 20.2995L87.2231 7.84351L94.8518 19.9206L93.4597 20.5334L88.5372 12.5451L88.3702 23.4079L80.2737 16.2106L82.8352 25.2462L81.4431 25.8589V25.8701Z" fill="#E7D7C5"/>
<path d="M102.38 3.3754L106.523 16.0876L105.109 16.5444L101.4 5.16914L96.489 6.77349L98.7164 13.5919C99.0839 14.7395 99.6964 16.3884 98.85 17.8702C98.4602 18.5498 97.7697 19.0735 96.9233 19.3408C96.8342 19.3743 96.5335 19.4411 96.1215 19.4745L95.6871 18.1376C95.8987 18.1376 96.166 18.1042 96.4333 18.0262C97.0013 17.8368 97.3465 17.458 97.5136 17.1237C98.0147 16.1433 97.547 14.7729 97.1238 13.4805L94.6514 5.89333L102.391 3.36426L102.38 3.3754Z" fill="#E7D7C5"/>
<path d="M109.207 7.17498L115.889 5.62634L114.664 0.334238L116.112 0L119.13 13.0241L117.682 13.3584L116.212 6.98558L109.53 8.53422L111 14.907L109.552 15.2413L106.534 2.21711L107.982 1.88288L109.207 7.17498Z" fill="#E7D7C5"/>
<path d="M131.581 94.7573H128.462L129.543 92.8076H133.63V111.38H131.569V94.7573H131.581Z" fill="#AD8467"/>
<path d="M142.94 108.65L144.777 109.318L141.971 115.613L140.668 115.09L142.951 108.661L142.94 108.65Z" fill="#AD8467"/>
<path d="M160.948 94.7016H154.99L153.798 98.7125C154.155 98.6234 154.522 98.6011 154.968 98.6011C158.698 98.6011 161.093 101.409 161.093 105.03C161.093 109.174 157.975 111.714 154.333 111.714C152.829 111.714 151.437 111.291 150.19 110.266C149.611 109.765 149.021 109.13 148.575 108.372L150.212 107.202C150.513 107.815 150.903 108.261 151.46 108.706C152.239 109.341 153.186 109.82 154.466 109.82C157.084 109.82 159.033 107.681 159.033 105.063C159.033 102.445 157.117 100.495 154.466 100.495C153.798 100.495 152.551 100.607 150.88 101.776L153.576 92.8076H160.948V94.7016Z" fill="#AD8467"/>
<path d="M74.0144 144.803L77.0992 125.195L84.2268 140.871L91.4879 125.161L94.3835 144.792H92.2675L90.519 131.868L84.2045 145.572L77.9679 131.868L76.1303 144.792H74.0144V144.803Z" fill="#AD8467"/>
<path d="M111.88 126.23V144.803H109.819V128.18H102.636V138.152C102.636 139.823 102.714 142.274 100.966 143.856C100.164 144.58 99.0168 144.97 97.7918 144.97C97.6581 144.97 97.2349 144.948 96.6781 144.803V142.853C96.9565 142.931 97.3129 143.02 97.7027 143.02C98.5379 143.02 99.1504 142.664 99.5068 142.296C100.587 141.215 100.565 139.21 100.565 137.316V126.23H111.869H111.88Z" fill="#AD8467"/>
<path d="M120.043 126.231C121.902 126.231 123.462 126.453 124.72 127.534C126.09 128.704 126.413 130.342 126.413 131.512C126.413 134.13 124.776 136.715 120.544 136.715H118.74V144.792H116.679V126.219H120.043V126.231ZM118.74 134.776H120.432C122.882 134.776 124.353 133.55 124.353 131.411C124.353 128.459 121.602 128.18 120.265 128.18H118.74V134.776Z" fill="#AD8467"/>
<path d="M141.392 126.23V142.853H143.508V148.702H141.559V144.803H128.418V148.702H126.469V142.853C127.805 142.909 128.863 141.739 129.42 140.346C129.776 139.433 130.088 138.04 130.088 135.478V126.23H141.392ZM132.149 135.478C132.149 138.04 131.926 139.489 131.48 140.658C131.146 141.55 130.679 142.24 130.066 142.853H139.332V128.18H132.149V135.478Z" fill="#AD8467"/>
<path d="M156.126 126.23C157.15 126.23 159.021 126.32 160.38 127.4C160.959 127.846 162.051 128.982 162.051 131.244C162.051 132.158 161.85 133.773 160.213 134.887C162.797 135.533 163.743 137.784 163.743 139.567C163.743 141.349 162.852 142.798 161.85 143.577C160.38 144.747 158.676 144.803 157.395 144.803H152.774V126.23H156.115H156.126ZM154.845 134.386H156.404C157.496 134.386 160.046 134.163 160.046 131.3C160.046 128.236 157.039 128.18 156.46 128.18H154.845V134.386ZM154.845 142.853H157.206C158.398 142.853 159.567 142.764 160.458 142.073C161.182 141.539 161.683 140.625 161.683 139.511C161.683 138.04 160.826 137.171 160.102 136.781C159.411 136.391 158.431 136.224 156.961 136.224H154.845V142.853Z" fill="#AD8467"/>
<path d="M174.023 126.23H182.487V128.18H176.083V144.803H174.023V126.23Z" fill="#AD8467"/>
<path d="M183.3 135.534C183.3 129.997 187.61 125.93 192.955 125.93C198.301 125.93 202.611 129.997 202.611 135.534C202.611 141.071 198.323 145.138 192.955 145.138C187.587 145.138 183.3 141.049 183.3 135.534ZM185.416 135.534C185.416 139.79 188.779 143.188 192.955 143.188C197.132 143.188 200.495 139.79 200.495 135.534C200.495 131.278 197.132 127.88 192.955 127.88C188.779 127.88 185.416 131.278 185.416 135.534Z" fill="#AD8467"/>
<path d="M219.316 126.23V142.853H221.432V148.702H219.483V144.803H206.341V148.702H204.392V142.853C205.729 142.909 206.787 141.739 207.344 140.346C207.711 139.433 208.012 138.04 208.012 135.478V126.23H219.316ZM210.072 135.478C210.072 138.04 209.849 139.489 209.404 140.658C209.07 141.55 208.602 142.24 207.99 142.853H217.255V128.18H210.072V135.478Z" fill="#AD8467"/>
<path d="M121.669 173.325C121.346 173.002 120.867 172.623 120.355 172.389C119.82 172.144 119.208 171.999 118.618 171.999C116.279 171.999 114.553 173.882 114.553 176.211C114.553 178.951 116.78 180.333 118.629 180.333C119.308 180.333 119.976 180.132 120.511 179.865C121.09 179.575 121.491 179.197 121.68 179.018V180.411C120.555 181.213 119.386 181.391 118.629 181.391C115.622 181.391 113.395 179.119 113.395 176.188C113.395 173.258 115.655 170.93 118.684 170.93C119.286 170.93 120.455 171.008 121.669 171.932V173.325Z" fill="#AD8467"/>
<path d="M125.567 171.097C126.58 171.097 127.426 171.219 128.117 171.81C128.863 172.445 129.041 173.336 129.041 173.983C129.041 175.409 128.15 176.812 125.845 176.812H124.865V181.213H123.74V171.097H125.578H125.567ZM124.854 175.754H125.778C127.115 175.754 127.916 175.085 127.916 173.916C127.916 172.311 126.413 172.155 125.689 172.155H124.854V175.754Z" fill="#AD8467"/>
<path d="M135.89 172.166H131.77V175.163H135.768V176.222H131.77V180.155H135.89V181.213H130.645V171.097H135.89V172.155V172.166Z" fill="#AD8467"/>
<path d="M144.989 171.097V180.155H146.136V183.341H145.078V181.213H137.929V183.341H136.871V180.155C137.594 180.188 138.174 179.553 138.474 178.784C138.675 178.283 138.842 177.525 138.842 176.133V171.097H145H144.989ZM139.955 176.133C139.955 177.525 139.833 178.316 139.588 178.952C139.41 179.442 139.142 179.821 138.82 180.155H143.864V172.166H139.955V176.144V176.133Z" fill="#AD8467"/>
<path d="M148.787 175.208H153.966V171.097H155.09V181.213H153.966V176.266H148.787V181.213H147.662V171.097H148.787V175.208Z" fill="#AD8467"/>
<path d="M164.735 173.492L157.697 181.67V171.097H158.821V178.851L165.86 170.674V181.213H164.735V173.492Z" fill="#AD8467"/>
<path d="M175.493 173.492L168.455 181.67V171.097H169.579V178.851L176.618 170.673V181.213H175.493V173.492ZM171.25 168.456C171.495 169.292 172.419 169.303 172.542 169.303C172.664 169.303 173.589 169.292 173.834 168.456L174.892 168.802C174.803 169.058 174.268 170.272 172.542 170.272C170.816 170.272 170.281 169.058 170.192 168.802L171.25 168.456Z" fill="#AD8467"/>
<path d="M77.5338 194.371C77.5338 191.352 79.8836 189.135 82.7903 189.135C85.697 189.135 88.0469 191.352 88.0469 194.371C88.0469 197.391 85.7082 199.608 82.7903 199.608C79.8725 199.608 77.5338 197.38 77.5338 194.371ZM78.6809 194.371C78.6809 196.689 80.5184 198.538 82.7903 198.538C85.0622 198.538 86.8998 196.689 86.8998 194.371C86.8998 192.054 85.0622 190.205 82.7903 190.205C80.5184 190.205 78.6809 192.054 78.6809 194.371Z" fill="#AD8467"/>
<path d="M90.1186 189.302H95.1413V190.36H91.2434V193.502H92.6133C93.8606 193.502 96.0991 193.759 96.0991 196.354C96.0991 198.282 94.8072 199.418 92.8249 199.418H90.1298V189.302H90.1186ZM91.2434 198.36H92.5464C93.003 198.36 93.8383 198.36 94.4063 197.803C94.6847 197.547 94.9408 197.09 94.9408 196.366C94.9408 195.875 94.8183 195.218 94.1279 194.839C93.6601 194.583 93.0476 194.583 92.4351 194.583H91.2546V198.371L91.2434 198.36Z" fill="#AD8467"/>
<path d="M97.6025 194.371C97.6025 191.352 99.9524 189.135 102.859 189.135C105.766 189.135 108.116 191.352 108.116 194.371C108.116 197.391 105.777 199.608 102.859 199.608C99.9412 199.608 97.6025 197.38 97.6025 194.371ZM98.7496 194.371C98.7496 196.689 100.587 198.538 102.859 198.538C105.131 198.538 106.969 196.689 106.969 194.371C106.969 192.054 105.131 190.205 102.859 190.205C100.587 190.205 98.7496 192.054 98.7496 194.371Z" fill="#AD8467"/>
<path d="M112.024 189.302C113.038 189.302 113.884 189.425 114.575 190.015C115.321 190.65 115.499 191.553 115.499 192.188C115.499 193.614 114.608 195.017 112.303 195.017H111.323V199.418H110.198V189.302H112.035H112.024ZM111.312 193.959H112.236C113.572 193.959 114.374 193.291 114.374 192.121C114.374 190.516 112.871 190.36 112.147 190.36H111.312V193.959Z" fill="#AD8467"/>
<path d="M116.557 194.371C116.557 191.352 118.907 189.135 121.813 189.135C124.72 189.135 127.07 191.352 127.07 194.371C127.07 197.391 124.731 199.608 121.813 199.608C118.895 199.608 116.557 197.38 116.557 194.371ZM117.704 194.371C117.704 196.689 119.541 198.538 121.813 198.538C124.085 198.538 125.923 196.689 125.923 194.371C125.923 192.054 124.085 190.205 121.813 190.205C119.541 190.205 117.704 192.054 117.704 194.371Z" fill="#AD8467"/>
<path d="M131.636 190.36V199.418H130.511V190.36H128.05V189.302H134.086V190.36H131.636Z" fill="#AD8467"/>
<path d="M140.969 189.302C141.982 189.302 142.829 189.425 143.519 190.015C144.265 190.65 144.443 191.553 144.443 192.188C144.443 193.614 143.552 195.017 141.247 195.017H140.267V199.418H139.142V189.302H140.98H140.969ZM140.256 193.959H141.18C142.517 193.959 143.319 193.291 143.319 192.121C143.319 190.516 141.815 190.36 141.091 190.36H140.256V193.959Z" fill="#AD8467"/>
<path d="M151.293 190.361H147.172V193.358H151.17V194.416H147.172V198.349H151.293V199.407H146.048V189.291H151.293V190.349V190.361Z" fill="#AD8467"/>
<path d="M153.576 190.606C154.389 189.391 155.48 189.135 156.471 189.135C156.983 189.135 157.908 189.213 158.609 189.848C159.044 190.238 159.4 190.884 159.4 191.709C159.4 192.745 158.799 193.48 158.008 193.848C159.356 194.149 160.035 195.229 160.035 196.455C160.035 197.68 159.4 198.483 158.776 198.928C158.142 199.363 157.295 199.597 156.471 199.597C154.467 199.597 153.331 198.349 152.818 197.168L153.91 196.678C154.322 197.814 155.302 198.527 156.516 198.527C157.061 198.527 157.64 198.393 158.064 198.104C158.721 197.647 158.888 197.023 158.888 196.477C158.888 194.628 157.173 194.494 156.193 194.494H155.279V193.436H156.193C157.607 193.436 158.253 192.645 158.253 191.72C158.253 191.285 158.086 190.906 157.841 190.661C157.451 190.249 156.872 190.193 156.482 190.193C155.758 190.193 155.057 190.405 154.455 191.285L153.587 190.606H153.576Z" fill="#AD8467"/>
<path d="M169.123 191.697L162.084 199.875V189.302H163.209V197.056L170.248 188.879V199.418H169.123V191.697Z" fill="#AD8467"/>
<path d="M179.892 189.302V198.36H181.039V201.546H179.981V199.418H172.831V201.546H171.773V198.36C172.497 198.393 173.076 197.758 173.377 196.989C173.578 196.488 173.745 195.731 173.745 194.338V189.302H179.903H179.892ZM174.858 194.338C174.858 195.731 174.736 196.522 174.491 197.157C174.313 197.647 174.045 198.026 173.722 198.36H178.767V190.372H174.858V194.349V194.338Z" fill="#AD8467"/>
<path d="M187.81 190.361H183.689V193.358H187.687V194.416H183.689V198.349H187.81V199.407H182.565V189.291H187.81V190.349V190.361Z" fill="#AD8467"/>
<path d="M190.995 193.413H196.174V189.302H197.299V199.418H196.174V194.472H190.995V199.418H189.871V189.302H190.995V193.413Z" fill="#AD8467"/>
<path d="M202.399 190.36V199.418H201.274V190.36H198.813V189.302H204.849V190.36H202.388H202.399Z" fill="#AD8467"/>
<path d="M211.231 196.566H206.921L205.707 199.418H204.46L209.115 188.823L213.647 199.418H212.4L211.22 196.566H211.231ZM210.796 195.508L209.104 191.463L207.377 195.508H210.807H210.796Z" fill="#AD8467"/>
<path d="M130.712 207.506C131.269 207.506 132.293 207.551 133.028 208.141C133.351 208.387 133.941 209.01 133.941 210.236C133.941 210.737 133.83 211.617 132.939 212.219C134.353 212.564 134.866 213.801 134.866 214.77C134.866 215.74 134.376 216.531 133.83 216.954C133.028 217.589 132.104 217.623 131.402 217.623H128.885V207.506H130.701H130.712ZM130.01 211.952H130.856C131.447 211.952 132.839 211.829 132.839 210.269C132.839 208.598 131.202 208.576 130.879 208.576H129.999V211.963L130.01 211.952ZM130.01 216.564H131.302C131.959 216.564 132.594 216.52 133.073 216.141C133.462 215.851 133.741 215.35 133.741 214.748C133.741 213.946 133.273 213.478 132.872 213.266C132.494 213.055 131.959 212.966 131.157 212.966H130.01V216.575V216.564Z" fill="#AD8467"/>
<path d="M140.468 207.506H145.078V208.565H141.592V217.623H140.468V207.506Z" fill="#AD8467"/>
<path d="M145.513 212.576C145.513 209.556 147.862 207.339 150.769 207.339C153.676 207.339 156.026 209.556 156.026 212.576C156.026 215.595 153.687 217.812 150.769 217.812C147.851 217.812 145.513 215.584 145.513 212.576ZM146.66 212.576C146.66 214.893 148.497 216.742 150.769 216.742C153.041 216.742 154.879 214.893 154.879 212.576C154.879 210.258 153.041 208.409 150.769 208.409C148.497 208.409 146.66 210.258 146.66 212.576Z" fill="#AD8467"/>
<path d="M165.136 207.506V216.564H166.283V219.751H165.225V217.623H158.075V219.751H157.017V216.564C157.741 216.598 158.32 215.963 158.621 215.194C158.821 214.692 158.988 213.935 158.988 212.542V207.506H165.147H165.136ZM160.102 212.542C160.102 213.935 159.979 214.726 159.734 215.361C159.556 215.851 159.289 216.23 158.966 216.564H164.011V208.576H160.102V212.553V212.542Z" fill="#AD8467"/>
<path d="M183.266 14.8172L189.503 10.7506C189.937 10.4609 191.107 9.69217 191.541 9.31336C192.354 8.65603 192.666 8.07668 192.822 7.55304C193.234 6.10468 192.499 4.74544 190.984 4.31093C190.082 4.05468 189.213 4.23294 188.523 4.83457C188.167 5.14653 187.866 5.58104 187.665 6.23837L186.24 5.82614C186.674 4.55604 187.298 3.87642 187.966 3.44191C188.679 2.98512 189.793 2.55061 191.385 3.0074C193.657 3.66474 194.882 5.77044 194.247 7.98755C194.002 8.85657 193.523 9.56961 192.432 10.4498C191.675 11.0403 190.75 11.6307 190.06 12.0875L186.507 14.3381L191.942 15.909L191.563 17.2237L183.255 14.8283L183.266 14.8172Z" fill="#E7D7C5"/>
<path d="M195.751 16.7557C195.372 15.2405 195.55 13.469 196.218 11.6864C196.887 9.90379 197.922 8.44428 199.192 7.55298C200.673 6.51684 202.11 6.5057 203.101 6.87336C204.092 7.24103 205.172 8.19918 205.607 9.94836C205.985 11.4636 205.807 13.235 205.15 15.0176C204.482 16.8002 203.446 18.2597 202.177 19.1511C200.695 20.1872 199.259 20.1983 198.268 19.8307C197.276 19.463 196.196 18.5049 195.762 16.7557H195.751ZM199.949 8.73396C198.869 9.54727 198.101 10.8842 197.599 12.1989C197.109 13.5136 196.82 15.0288 197.098 16.3546C197.366 17.6581 198.101 18.3155 198.735 18.5494C199.37 18.7834 200.361 18.7722 201.419 17.9701C202.5 17.1568 203.268 15.8198 203.758 14.5051C204.248 13.1905 204.538 11.6753 204.259 10.3494C203.992 9.04591 203.257 8.38858 202.622 8.15461C201.987 7.92064 200.996 7.93179 199.938 8.73396H199.949Z" fill="#E7D7C5"/>
<path d="M218.882 13.6584L219.405 14.3937L206.598 23.2064L206.086 22.46L218.882 13.6584ZM213.826 14.6388C213.135 16.1094 211.42 16.7111 209.95 16.0203C208.48 15.3296 207.879 13.6138 208.569 12.1432C209.26 10.6725 210.975 10.0709 212.445 10.7616C213.915 11.4524 214.527 13.1682 213.826 14.6388ZM212.734 14.1263C213.158 13.235 212.857 12.1877 211.966 11.7644C211.12 11.3633 210.084 11.7644 209.649 12.6668C209.215 13.5692 209.56 14.6277 210.418 15.0287C211.309 15.4521 212.311 15.0176 212.734 14.1263ZM216.888 24.7551C216.198 26.2257 214.483 26.8385 213.013 26.1366C211.543 25.4347 210.941 23.7301 211.632 22.2594C212.322 20.7888 214.037 20.176 215.507 20.8779C216.977 21.5687 217.579 23.2844 216.888 24.7551ZM215.797 24.2426C216.22 23.3513 215.919 22.304 215.029 21.8806C214.182 21.4795 213.146 21.8806 212.712 22.7831C212.289 23.6855 212.623 24.7439 213.481 25.145C214.371 25.5684 215.374 25.1339 215.797 24.2426Z" fill="#E7D7C5"/>
<path d="M220.864 30.1919L227.98 27.9971C228.482 27.8411 229.807 27.4177 230.341 27.1837C231.31 26.7715 231.767 26.3036 232.056 25.8468C232.858 24.5767 232.524 23.0615 231.177 22.2259C230.375 21.7245 229.495 21.6688 228.66 22.0476C228.225 22.2482 227.824 22.5935 227.446 23.1618L226.187 22.3707C226.956 21.2677 227.746 20.7887 228.504 20.5547C229.317 20.3096 230.497 20.1982 231.912 21.0783C233.916 22.3373 234.518 24.6992 233.293 26.6601C232.814 27.4289 232.157 27.9859 230.865 28.5318C229.974 28.8995 228.927 29.2115 228.136 29.4454L224.105 30.6375L228.894 33.6457L228.17 34.8044L220.842 30.2142L220.864 30.1919Z" fill="#E7D7C5"/>
<path d="M234.317 30.0585L237.246 32.1977L239.284 29.4124L240.454 30.2591L238.416 33.0444L241.345 35.1835L240.565 36.2531L237.636 34.114L235.598 36.8993L234.429 36.0526L236.467 33.2672L233.538 31.1281L234.317 30.0585Z" fill="#E7D7C5"/>
<path d="M241.924 44.9433L253.194 36.1528L249.218 47.9069L260.767 43.2275L252.626 54.9704L251.512 53.9343L256.947 46.2803L246.879 50.3691L250.343 40.0968L243.015 45.9906L241.901 44.9433H241.924Z" fill="#E7D7C5"/>
<path d="M270.779 55.4168L260.701 64.2072L259.721 63.0931L268.741 55.2274L265.345 51.3279L259.932 56.0518C259.03 56.8428 257.738 58.0461 256.045 57.8456C255.266 57.7564 254.52 57.3108 253.941 56.6534C253.874 56.5755 253.696 56.3415 253.506 55.9738L254.564 55.0491C254.653 55.2385 254.776 55.4725 254.965 55.6842C255.355 56.1409 255.845 56.2969 256.212 56.3192C257.315 56.3972 258.395 55.4279 259.42 54.5366L265.434 49.2891L270.779 55.4279V55.4168Z" fill="#E7D7C5"/>
<path d="M274.799 60.6528C275.601 61.7224 276.147 62.7251 276.069 63.9172C275.98 65.2096 275.178 66.1121 274.51 66.6134C273.006 67.7498 270.801 67.917 268.975 65.477L268.195 64.4297L263.551 67.917L262.66 66.7248L273.352 58.7031L274.81 60.6417L274.799 60.6528ZM269.309 63.5941L270.044 64.5746C271.102 65.9895 272.449 66.3126 273.675 65.3768C275.378 64.1066 274.343 62.3909 273.764 61.6221L273.107 60.742L269.309 63.5941Z" fill="#E7D7C5"/>
<path d="M283.876 73.9329L273.82 80.4283L274.644 81.7095L271.102 83.9935L270.345 82.8125L272.706 81.2862L267.572 73.3313L265.211 74.8577L264.454 73.6767L267.995 71.3927C268.485 72.2283 269.599 72.4066 270.668 72.1949C271.369 72.0501 272.327 71.6935 273.875 70.6908L279.466 67.0811L283.887 73.9218L283.876 73.9329ZM274.677 71.9498C273.129 72.9525 272.16 73.387 271.28 73.5653C270.612 73.7101 270.011 73.699 269.398 73.5653L273.018 79.1805L281.894 73.4427L279.087 69.0976L274.677 71.9498Z" fill="#E7D7C5"/>
<path d="M147.027 291.466C72.0879 291.466 11.1252 230.479 11.1252 155.509C11.1252 80.5398 72.0879 19.5525 147.027 19.5525V38.4927C82.5342 38.4927 30.0577 90.9903 30.0577 155.509C30.0577 220.029 82.5342 272.526 147.027 272.526C167.73 272.526 188.066 267.045 205.84 256.683L215.374 273.05C194.704 285.105 171.071 291.478 147.027 291.478V291.466Z" fill="#B6B5B5"/>
<path d="M244.396 284.614L244.674 277.172C244.685 276.648 244.73 275.256 244.674 274.676C244.607 273.629 244.318 273.039 243.973 272.615C243.037 271.445 241.5 271.256 240.264 272.248C239.529 272.838 239.184 273.651 239.262 274.565C239.306 275.044 239.496 275.534 239.908 276.08L238.749 277.005C237.959 275.913 237.769 275.011 237.803 274.22C237.836 273.373 238.126 272.214 239.418 271.178C241.266 269.696 243.694 269.908 245.131 271.713C245.699 272.415 246.011 273.217 246.1 274.621C246.155 275.579 246.1 276.671 246.066 277.495L245.855 281.695L250.265 278.152L251.122 279.222L244.373 284.626L244.396 284.614Z" fill="#E7D7C5"/>
<path d="M253.439 274.856C251.924 274.522 250.41 273.575 249.107 272.182C247.804 270.79 246.968 269.219 246.735 267.67C246.467 265.887 247.091 264.584 247.871 263.86C248.65 263.135 249.987 262.601 251.746 262.979C253.261 263.314 254.775 264.261 256.078 265.653C257.381 267.046 258.217 268.628 258.45 270.166C258.718 271.948 258.094 273.241 257.315 273.976C256.535 274.7 255.199 275.235 253.439 274.845V274.856ZM248.138 267.525C248.394 268.851 249.24 270.143 250.198 271.168C251.156 272.193 252.381 273.129 253.695 273.475C254.976 273.82 255.889 273.452 256.39 272.984C256.891 272.516 257.315 271.625 257.058 270.322C256.802 268.996 255.956 267.703 254.998 266.678C254.04 265.653 252.815 264.717 251.501 264.372C250.22 264.027 249.296 264.394 248.806 264.862C248.305 265.33 247.882 266.222 248.138 267.525Z" fill="#E7D7C5"/>
<path d="M258.35 257.553C259.553 258.644 259.642 260.449 258.562 261.653C257.471 262.856 255.667 262.945 254.453 261.864C253.25 260.772 253.161 258.968 254.241 257.753C255.332 256.55 257.137 256.461 258.35 257.541V257.553ZM257.549 258.444C256.825 257.787 255.722 257.775 255.065 258.5C254.43 259.202 254.519 260.305 255.266 260.973C256.012 261.641 257.114 261.619 257.749 260.917C258.406 260.193 258.284 259.101 257.549 258.444ZM258.874 252.428L259.72 252.138L264.476 266.945L263.607 267.212L258.874 252.416V252.428ZM268.908 257.53C270.111 258.622 270.2 260.427 269.12 261.63C268.028 262.834 266.224 262.923 265.01 261.842C263.808 260.75 263.718 258.945 264.799 257.731C265.89 256.528 267.694 256.438 268.908 257.519V257.53ZM268.106 258.422C267.382 257.764 266.28 257.753 265.623 258.477C264.988 259.179 265.077 260.282 265.823 260.951C266.569 261.619 267.672 261.597 268.307 260.895C268.964 260.171 268.841 259.079 268.106 258.422Z" fill="#E7D7C5"/>
<path d="M277.561 244.295C279.265 245.509 279.978 247.682 278.397 249.91C276.815 252.138 274.521 252.171 272.817 250.968C271.637 250.133 271.024 248.885 271.325 247.425C270.2 247.927 269.008 247.771 267.995 247.046C266.447 245.943 265.712 243.849 267.115 241.888C268.507 239.927 270.723 239.927 272.282 241.03C273.296 241.754 273.842 242.824 273.73 244.049C275.011 243.281 276.392 243.459 277.572 244.295H277.561ZM271.481 242.178C270.289 241.331 268.941 241.676 268.229 242.668C267.516 243.671 267.638 245.052 268.83 245.899C269.91 246.668 271.28 246.434 272.037 245.375C272.795 244.317 272.561 242.946 271.481 242.178ZM276.67 245.476C275.445 244.607 273.964 244.885 273.084 246.122C272.205 247.37 272.427 248.851 273.652 249.72C274.9 250.601 276.392 250.367 277.283 249.108C278.174 247.849 277.907 246.356 276.67 245.476Z" fill="#E7D7C5"/>
<path d="M281.515 241.732C279.956 241.821 278.252 241.331 276.615 240.35C274.989 239.37 273.741 238.077 273.107 236.662C272.361 235.025 272.617 233.599 273.162 232.685C273.708 231.771 274.855 230.891 276.648 230.78C278.207 230.691 279.922 231.181 281.548 232.161C283.174 233.142 284.422 234.434 285.056 235.849C285.803 237.487 285.558 238.913 285.001 239.827C284.455 240.74 283.308 241.62 281.515 241.732ZM274.41 236.128C275.011 237.342 276.18 238.345 277.383 239.069C278.586 239.793 280.023 240.361 281.37 240.328C282.695 240.306 283.475 239.704 283.831 239.114C284.188 238.534 284.355 237.554 283.753 236.373C283.152 235.158 281.983 234.156 280.78 233.431C279.577 232.707 278.141 232.139 276.793 232.173C275.468 232.195 274.688 232.796 274.332 233.376C273.975 233.955 273.808 234.936 274.41 236.117V236.128Z" fill="#E7D7C5"/>
<path d="M287.473 231.472C285.925 231.684 284.187 231.316 282.483 230.458C280.779 229.6 279.454 228.408 278.697 227.049C277.828 225.467 277.973 224.03 278.452 223.083C278.931 222.136 280 221.166 281.782 220.921C283.33 220.709 285.067 221.077 286.771 221.935C288.475 222.793 289.8 223.985 290.558 225.344C291.426 226.926 291.281 228.364 290.803 229.311C290.324 230.258 289.255 231.227 287.473 231.472ZM279.955 226.425C280.646 227.584 281.893 228.508 283.152 229.132C284.41 229.756 285.88 230.213 287.228 230.09C288.542 229.968 289.288 229.311 289.589 228.698C289.901 228.085 289.99 227.105 289.299 225.968C288.609 224.809 287.361 223.885 286.103 223.261C284.856 222.626 283.374 222.169 282.027 222.303C280.713 222.425 279.967 223.083 279.666 223.695C279.354 224.308 279.265 225.288 279.955 226.425Z" fill="#E7D7C5"/>
<path d="M289.021 220.91L290.78 216.865L292.139 217.456L290.379 221.5L289.021 220.91Z" fill="#E7D7C5"/>
<path d="M286.559 208.565L285.78 210.67L284.733 209.456L285.746 206.693L298.298 211.305L297.785 212.698L286.559 208.565Z" fill="#E7D7C5"/>
<path d="M300.57 202.86L297.306 198.738C297.318 199.139 297.273 199.517 297.151 199.93C296.449 202.392 294.11 203.562 291.727 202.882C289.166 202.147 287.84 199.774 288.575 197.211C289.433 194.181 292.195 193.423 294.222 194.002C294.701 194.136 295.814 194.56 296.872 195.908L301.672 202.013L300.57 202.871V202.86ZM292.094 201.445C293.81 201.935 295.424 201.021 295.926 199.261C296.427 197.512 295.48 195.908 293.81 195.429C292.095 194.938 290.402 195.774 289.889 197.568C289.388 199.339 290.357 200.955 292.094 201.445Z" fill="#E7D7C5"/>
<path d="M303.576 191.274L300.013 187.408C300.057 187.809 300.035 188.188 299.946 188.6C299.434 191.118 297.195 192.455 294.756 191.953C292.15 191.418 290.647 189.146 291.181 186.527C291.816 183.441 294.511 182.483 296.571 182.907C297.061 183.007 298.197 183.341 299.356 184.6L304.601 190.327L303.565 191.262L303.576 191.274ZM295.023 190.494C296.772 190.85 298.309 189.814 298.676 188.032C299.044 186.249 297.986 184.711 296.282 184.366C294.533 184.01 292.907 184.968 292.529 186.784C292.161 188.589 293.253 190.126 295.023 190.494Z" fill="#E7D7C5"/>
<path d="M305.704 179.486L301.861 175.899C301.928 176.289 301.939 176.679 301.895 177.091C301.572 179.642 299.434 181.146 296.961 180.823C294.322 180.478 292.651 178.328 292.997 175.676C293.398 172.556 296.015 171.398 298.097 171.665C298.598 171.732 299.757 171.977 300.993 173.147L306.65 178.472L305.693 179.475L305.704 179.486ZM297.106 179.353C298.877 179.575 300.336 178.439 300.57 176.623C300.804 174.818 299.634 173.37 297.908 173.147C296.137 172.924 294.589 173.994 294.344 175.843C294.11 177.67 295.313 179.119 297.106 179.353Z" fill="#E7D7C5"/>
<path d="M307.775 164.757L293.676 162.496L304.969 157.393L293.676 152.123L307.809 150.084V151.611L298.498 152.847L308.343 157.426L298.476 161.894L307.775 163.242V164.768V164.757Z" fill="#E7D7C5"/>
<path d="M293.286 137.985L306.584 136.693L306.728 138.163L294.823 139.322L295.324 144.469L302.463 143.778C303.666 143.667 305.414 143.433 306.673 144.581C307.252 145.104 307.608 145.895 307.697 146.775C307.697 146.876 307.72 147.177 307.653 147.589L306.261 147.722C306.305 147.522 306.339 147.255 306.305 146.976C306.25 146.374 305.949 145.962 305.659 145.728C304.802 145.026 303.376 145.182 302.018 145.316L294.077 146.085L293.286 137.985Z" fill="#E7D7C5"/>
<path d="M297.931 132.525L296.672 125.784L291.326 126.787L291.059 125.328L304.212 122.876L304.479 124.336L298.053 125.539L299.312 132.28L305.737 131.076L306.005 132.536L292.852 134.987L292.585 133.528L297.931 132.525Z" fill="#E7D7C5"/>
<path d="M147.027 291.466C72.0879 291.466 11.1252 230.479 11.1252 155.509C11.1252 148.88 11.6041 142.229 12.5507 135.722L31.2828 138.452C30.4698 144.056 30.0466 149.794 30.0466 155.509C30.0466 220.028 82.523 272.526 147.016 272.526C167.719 272.526 188.055 267.045 205.829 256.683L215.362 273.05C194.693 285.105 171.06 291.477 147.016 291.477L147.027 291.466Z" fill="#3C4B45"/>
<path d="M5.52373 224.007L6.19194 225.511L4.94462 226.068L4.27641 224.564L2.28293 225.455L1.68154 224.107L3.67503 223.216L0.868561 216.955L15.157 219.695L5.51259 224.018L5.52373 224.007ZM4.92234 222.659L10.4239 220.197L3.18501 218.804L4.91121 222.67L4.92234 222.659Z" fill="#E7D7C5"/>
<path d="M6.29201 229.599C6.99363 228.218 8.29663 226.981 9.96714 226.079C11.6377 225.176 13.375 224.753 14.923 224.92C16.716 225.109 17.8074 226.045 18.3197 226.981C18.8209 227.917 19.0102 229.343 18.1972 230.947C17.4845 232.34 16.1926 233.566 14.5221 234.468C12.8516 235.371 11.1142 235.794 9.56622 235.627C7.7732 235.437 6.6818 234.502 6.16951 233.566C5.66835 232.63 5.47903 231.204 6.29201 229.599ZM14.7225 226.302C13.375 226.212 11.9161 226.714 10.6799 227.382C9.44372 228.051 8.22981 229.009 7.57274 230.19C6.91567 231.337 7.03817 232.329 7.37228 232.92C7.69524 233.521 8.45254 234.156 9.77782 234.234C11.1254 234.323 12.5843 233.822 13.8205 233.153C15.0566 232.485 16.2706 231.527 16.9276 230.346C17.5847 229.198 17.4622 228.207 17.1281 227.616C16.8051 227.015 16.0478 226.38 14.7225 226.302Z" fill="#E7D7C5"/>
<path d="M26.639 240.496L26.7058 241.387L11.1812 242.267L11.1366 241.365L26.6502 240.496H26.639ZM19.1774 248.941C17.8187 249.832 16.048 249.464 15.1459 248.116C14.2549 246.757 14.6225 244.974 15.9811 244.083C17.3398 243.192 19.1106 243.56 20.0126 244.919C20.9036 246.278 20.5361 248.061 19.1774 248.952V248.941ZM18.5203 247.938C19.3444 247.392 19.634 246.345 19.0883 245.52C18.576 244.729 17.4846 244.54 16.6382 245.086C15.8029 245.632 15.5468 246.713 16.0702 247.504C16.6159 248.328 17.6962 248.473 18.5203 247.938ZM21.8057 238.713C20.447 239.604 18.6762 239.237 17.7742 237.889C16.8832 236.529 17.2507 234.758 18.6094 233.855C19.9681 232.964 21.7388 233.332 22.6409 234.691C23.5319 236.05 23.1644 237.822 21.8057 238.724V238.713ZM21.1486 237.71C21.9727 237.164 22.2623 236.117 21.7166 235.293C21.1931 234.502 20.1129 234.312 19.2665 234.858C18.4312 235.404 18.1751 236.485 18.6985 237.276C19.2442 238.1 20.3245 238.245 21.1375 237.71H21.1486Z" fill="#E7D7C5"/>
<path d="M33.2875 251.881L31.8397 250.166L33.4211 249.865L35.3144 252.126L25.0797 260.727L24.1219 259.591L33.2875 251.892V251.881Z" fill="#E7D7C5"/>
<path d="M29.1554 265.429L36.5948 264.973C37.1182 264.939 38.5103 264.839 39.0783 264.728C40.114 264.549 40.6708 264.204 41.0606 263.825C42.1297 262.778 42.1631 261.229 41.0606 260.093C40.4035 259.413 39.5571 259.157 38.6551 259.324C38.1873 259.413 37.7196 259.658 37.2184 260.115L36.1827 259.057C37.185 258.154 38.0648 257.887 38.8667 257.842C39.7131 257.798 40.8935 257.965 42.0518 259.157C43.7112 260.85 43.7334 263.29 42.0852 264.906C41.4393 265.541 40.6708 265.931 39.2899 266.154C38.3432 266.298 37.2407 266.354 36.4277 266.41L32.2291 266.622L36.1827 270.666L35.2027 271.624L29.1554 265.441V265.429Z" fill="#E7D7C5"/>
<path d="M39.7468 273.451C39.9361 271.903 40.7268 270.309 41.9853 268.872C43.2437 267.446 44.7249 266.454 46.2395 266.065C47.988 265.63 49.3355 266.12 50.1374 266.822C50.9392 267.524 51.5963 268.805 51.3847 270.588C51.1954 272.137 50.4047 273.73 49.1574 275.167C47.8989 276.604 46.4177 277.585 44.9031 277.975C43.1546 278.409 41.8071 277.919 41.0052 277.217C40.2034 276.515 39.5463 275.234 39.7579 273.451H39.7468ZM46.5179 267.446C45.2261 267.825 44.0233 268.805 43.099 269.853C42.1746 270.911 41.3616 272.226 41.15 273.563C40.9384 274.866 41.395 275.746 41.9073 276.203C42.4196 276.649 43.3551 276.994 44.6136 276.615C45.9054 276.237 47.1082 275.256 48.0325 274.209C48.9569 273.15 49.7699 271.836 49.9815 270.499C50.1931 269.195 49.7365 268.315 49.2242 267.858C48.7119 267.413 47.7764 267.067 46.5179 267.446Z" fill="#E7D7C5"/>
<path d="M49.5807 277.607L53.0554 280.325L52.1422 281.495L48.6675 278.777L49.5807 277.607Z" fill="#E7D7C5"/>
<path d="M64.8714 280.181L58.8576 276.003L59.6371 274.878L67.7002 280.482L52.5541 286.632L52.0419 285.329L64.8714 280.17V280.181Z" fill="#E7D7C5"/>
<path d="M64.1142 293.305L68.9253 291.177C68.5355 291.088 68.1791 290.943 67.8116 290.731C65.5954 289.428 65.0608 286.877 66.3193 284.737C67.6668 282.442 70.3062 281.752 72.6004 283.111C75.3178 284.704 75.3512 287.567 74.2821 289.383C74.0259 289.818 73.3466 290.787 71.7763 291.467L64.6599 294.586L64.1142 293.305ZM67.6111 285.45C66.7091 286.988 67.1879 288.782 68.7582 289.706C70.3285 290.631 72.1215 290.13 73.0013 288.626C73.9034 287.088 73.5248 285.239 71.9211 284.292C70.3285 283.356 68.5244 283.902 67.6111 285.45Z" fill="#E7D7C5"/>
<path d="M74.5935 299.144L79.2264 296.659C78.8366 296.603 78.458 296.481 78.0905 296.303C75.7852 295.166 75.0501 292.671 76.1527 290.431C77.3332 288.036 79.9058 287.156 82.3002 288.337C85.1289 289.729 85.3739 292.57 84.4496 294.464C84.2268 294.91 83.6143 295.935 82.1109 296.737L75.2506 300.38L74.6047 299.144H74.5935ZM77.5002 291.055C76.7095 292.659 77.322 294.409 78.9591 295.211C80.5963 296.013 82.3447 295.378 83.1132 293.807C83.9039 292.203 83.3804 290.387 81.7099 289.562C80.0506 288.749 78.2909 289.428 77.5002 291.044V291.055Z" fill="#E7D7C5"/>
<path d="M87.8355 305.839L94.5287 293.216L95.7092 305.56L104.34 296.569L101.712 310.618L100.275 310.117L102.113 300.903L94.5955 308.747L93.5598 297.962L89.2833 306.329L87.8466 305.839H87.8355Z" fill="#E7D7C5"/>
<path d="M117.86 300.77L114.786 313.783L113.338 313.438L116.089 301.784L111.055 300.592L109.407 307.577C109.128 308.747 108.783 310.485 107.291 311.298C106.6 311.677 105.743 311.755 104.885 311.555C104.785 311.532 104.496 311.443 104.128 311.254L104.451 309.884C104.629 309.984 104.874 310.106 105.142 310.173C105.732 310.307 106.211 310.162 106.534 309.962C107.469 309.382 107.781 307.967 108.104 306.641L109.941 298.876L117.86 300.748V300.77Z" fill="#E7D7C5"/>
<path d="M121.502 306.931L128.284 307.923L129.075 302.542L130.545 302.753L128.607 315.989L127.137 315.778L128.084 309.305L121.301 308.313L120.355 314.775L118.885 314.563L120.811 301.327L122.281 301.539L121.491 306.92L121.502 306.931Z" fill="#E7D7C5"/>
</g>
<defs>
<clipPath id="clip0_1_342">
<rect width="308.355" height="316" fill="white"/>
</clipPath>
</defs>
</svg>
