<svg width="693" height="316" viewBox="0 0 693 316" fill="none" xmlns="http://www.w3.org/2000/svg">
<path d="M49.4514 300.448H46.8594V310H45.6754V300.448H43.0834V299.328H49.4514V300.448ZM51.0479 299.328H52.9839C54.1999 299.328 55.0959 299.579 55.6719 300.08C56.3225 300.635 56.6479 301.397 56.6479 302.368C56.6479 303.2 56.3652 303.909 55.7999 304.496C55.2452 305.072 54.4025 305.36 53.2719 305.36H52.2319V310H51.0479V299.328ZM52.2319 300.448V304.24H53.2079C53.9119 304.24 54.4612 304.069 54.8559 303.728C55.2612 303.387 55.4639 302.912 55.4639 302.304C55.4639 301.067 54.6799 300.448 53.1119 300.448H52.2319ZM64.7151 310L63.4671 306.992H58.9231L57.6431 310H56.3311L61.2431 298.816L66.0271 310H64.7151ZM59.3871 305.872H63.0031L61.2111 301.6L59.3871 305.872ZM68.7163 299.328V303.664H74.1883V299.328H75.3723V310H74.1883V304.784H68.7163V310H67.5323V299.328H68.7163ZM86.286 300.208V301.68C85.8593 301.253 85.3953 300.923 84.894 300.688C84.286 300.411 83.6727 300.272 83.054 300.272C81.8273 300.272 80.8033 300.704 79.982 301.568C79.1713 302.421 78.766 303.472 78.766 304.72C78.766 306.064 79.2087 307.125 80.094 307.904C80.99 308.683 81.982 309.072 83.07 309.072C83.7527 309.072 84.414 308.907 85.054 308.576C85.502 308.352 85.9127 308.053 86.286 307.68V309.152C85.3153 309.845 84.2433 310.192 83.07 310.192C81.4913 310.192 80.174 309.664 79.118 308.608C78.0727 307.552 77.55 306.251 77.55 304.704C77.55 303.115 78.078 301.792 79.134 300.736C80.2007 299.68 81.534 299.152 83.134 299.152C84.3073 299.152 85.358 299.504 86.286 300.208ZM88.4698 299.328H96.3098V310H95.1258V300.448H89.6538V310H88.4698V299.328ZM107.976 308.608C106.909 309.664 105.597 310.192 104.04 310.192C102.482 310.192 101.165 309.664 100.088 308.608C99.0208 307.552 98.4875 306.24 98.4875 304.672C98.4875 303.093 99.0262 301.781 100.104 300.736C101.181 299.68 102.493 299.152 104.04 299.152C105.586 299.152 106.898 299.68 107.976 300.736C109.053 301.781 109.592 303.093 109.592 304.672C109.592 306.24 109.053 307.552 107.976 308.608ZM107.112 301.552C106.269 300.699 105.245 300.272 104.04 300.272C102.834 300.272 101.81 300.699 100.968 301.552C100.125 302.405 99.7035 303.445 99.7035 304.672C99.7035 305.899 100.125 306.939 100.968 307.792C101.81 308.645 102.834 309.072 104.04 309.072C105.245 309.072 106.269 308.645 107.112 307.792C107.954 306.939 108.376 305.899 108.376 304.672C108.376 303.445 107.954 302.405 107.112 301.552ZM111.767 299.328H113.703C114.919 299.328 115.815 299.579 116.391 300.08C117.041 300.635 117.367 301.397 117.367 302.368C117.367 303.2 117.084 303.909 116.519 304.496C115.964 305.072 115.121 305.36 113.991 305.36H112.951V310H111.767V299.328ZM112.951 300.448V304.24H113.927C114.631 304.24 115.18 304.069 115.575 303.728C115.98 303.387 116.183 302.912 116.183 302.304C116.183 301.067 115.399 300.448 113.831 300.448H112.951ZM124.78 300.448H122.188V310H121.004V300.448H118.412V299.328H124.78V300.448Z" fill="white"/>
<rect x="135" y="296.5" width="87" height="17" fill="#AD8467"/>
<path d="M232.56 300.968H231.376C231.408 300.376 231.6 299.832 231.872 299.4C232.576 298.296 233.712 298.152 234.352 298.152C236.368 298.152 237.36 299.56 237.36 301.032C237.36 301.8 237.072 302.856 235.984 303.4C236.352 303.544 237.52 304.136 237.52 305.976C237.52 307.976 236.064 309.192 234.24 309.192C233.136 309.192 231.84 308.728 231.264 307.352C231.104 306.968 231.04 306.616 231.024 306.232H232.208C232.256 306.616 232.384 307.016 232.592 307.304C232.944 307.816 233.568 308.104 234.24 308.104C235.424 308.104 236.336 307.128 236.336 305.944C236.336 305.336 236.096 304.52 235.28 304.152C234.944 303.992 234.48 303.912 234.064 303.928V302.872C234.48 302.904 234.944 302.824 235.28 302.648C235.616 302.472 236.176 302.024 236.176 301.064C236.176 300.12 235.664 299.24 234.352 299.24C233.92 299.24 233.392 299.32 232.976 299.848C232.768 300.12 232.592 300.52 232.56 300.968ZM241.942 298.232C243.238 298.232 244.262 299.256 244.262 300.552C244.262 301.848 243.238 302.872 241.942 302.872C240.646 302.872 239.622 301.848 239.622 300.552C239.622 299.256 240.646 298.232 241.942 298.232ZM241.942 301.992C242.726 301.992 243.302 301.336 243.302 300.552C243.302 299.768 242.726 299.112 241.942 299.112C241.19 299.112 240.582 299.752 240.582 300.552C240.582 301.352 241.19 301.992 241.942 301.992ZM241.35 308.84L247.574 298.12L248.198 298.472L241.974 309.208L241.35 308.84ZM247.606 304.472C248.902 304.472 249.926 305.496 249.926 306.792C249.926 308.088 248.902 309.112 247.606 309.112C246.31 309.112 245.286 308.088 245.286 306.792C245.286 305.496 246.31 304.472 247.606 304.472ZM247.606 308.232C248.39 308.232 248.966 307.576 248.966 306.792C248.966 306.008 248.39 305.352 247.606 305.352C246.854 305.352 246.246 305.992 246.246 306.792C246.246 307.592 246.854 308.232 247.606 308.232Z" fill="white"/>
<rect x="135" y="254.5" width="145" height="17" fill="#AD8467"/>
<path d="M295.664 257.328V258.416H292.24L291.552 260.72C291.733 260.677 291.957 260.656 292.224 260.656C293.28 260.656 294.128 261.008 294.768 261.712C295.419 262.416 295.744 263.296 295.744 264.352C295.744 265.504 295.365 266.432 294.608 267.136C293.861 267.84 292.944 268.192 291.856 268.192C290.939 268.192 290.144 267.915 289.472 267.36C289.088 267.029 288.779 266.667 288.544 266.272L289.488 265.6C289.648 265.92 289.888 266.208 290.208 266.464C290.731 266.891 291.307 267.104 291.936 267.104C292.683 267.104 293.307 266.837 293.808 266.304C294.309 265.771 294.56 265.125 294.56 264.368C294.56 263.6 294.309 262.971 293.808 262.48C293.317 261.989 292.693 261.744 291.936 261.744C291.264 261.744 290.576 261.989 289.872 262.48L291.424 257.328H295.664ZM298.294 257.904C298.742 257.456 299.291 257.232 299.942 257.232C300.592 257.232 301.142 257.456 301.59 257.904C302.038 258.352 302.262 258.901 302.262 259.552C302.262 260.203 302.038 260.752 301.59 261.2C301.142 261.648 300.592 261.872 299.942 261.872C299.291 261.872 298.742 261.648 298.294 261.2C297.846 260.752 297.622 260.203 297.622 259.552C297.622 258.901 297.846 258.352 298.294 257.904ZM299.942 260.992C300.326 260.992 300.646 260.853 300.902 260.576C301.168 260.288 301.302 259.947 301.302 259.552C301.302 259.157 301.168 258.821 300.902 258.544C300.646 258.256 300.326 258.112 299.942 258.112C299.568 258.112 299.248 258.256 298.982 258.544C298.715 258.821 298.582 259.157 298.582 259.552C298.582 259.947 298.715 260.288 298.982 260.576C299.248 260.853 299.568 260.992 299.942 260.992ZM299.35 267.84L305.574 257.12L306.198 257.472L299.974 268.208L299.35 267.84ZM303.958 264.144C304.406 263.696 304.955 263.472 305.606 263.472C306.256 263.472 306.806 263.696 307.254 264.144C307.702 264.592 307.926 265.141 307.926 265.792C307.926 266.443 307.702 266.992 307.254 267.44C306.806 267.888 306.256 268.112 305.606 268.112C304.955 268.112 304.406 267.888 303.958 267.44C303.51 266.992 303.286 266.443 303.286 265.792C303.286 265.141 303.51 264.592 303.958 264.144ZM305.606 267.232C305.99 267.232 306.31 267.093 306.566 266.816C306.832 266.528 306.966 266.187 306.966 265.792C306.966 265.397 306.832 265.061 306.566 264.784C306.31 264.496 305.99 264.352 305.606 264.352C305.232 264.352 304.912 264.496 304.646 264.784C304.379 265.061 304.246 265.397 304.246 265.792C304.246 266.187 304.379 266.528 304.646 266.816C304.912 267.093 305.232 267.232 305.606 267.232Z" fill="white"/>
<rect x="135" y="212.5" width="203" height="17" fill="#AD8467"/>
<path d="M346.832 225.632L352.896 216.416H347.056V215.328H354.896L347.76 226.256L346.832 225.632ZM356.294 215.904C356.742 215.456 357.291 215.232 357.942 215.232C358.592 215.232 359.142 215.456 359.59 215.904C360.038 216.352 360.262 216.901 360.262 217.552C360.262 218.203 360.038 218.752 359.59 219.2C359.142 219.648 358.592 219.872 357.942 219.872C357.291 219.872 356.742 219.648 356.294 219.2C355.846 218.752 355.622 218.203 355.622 217.552C355.622 216.901 355.846 216.352 356.294 215.904ZM357.942 218.992C358.326 218.992 358.646 218.853 358.902 218.576C359.168 218.288 359.302 217.947 359.302 217.552C359.302 217.157 359.168 216.821 358.902 216.544C358.646 216.256 358.326 216.112 357.942 216.112C357.568 216.112 357.248 216.256 356.982 216.544C356.715 216.821 356.582 217.157 356.582 217.552C356.582 217.947 356.715 218.288 356.982 218.576C357.248 218.853 357.568 218.992 357.942 218.992ZM357.35 225.84L363.574 215.12L364.198 215.472L357.974 226.208L357.35 225.84ZM361.958 222.144C362.406 221.696 362.955 221.472 363.606 221.472C364.256 221.472 364.806 221.696 365.254 222.144C365.702 222.592 365.926 223.141 365.926 223.792C365.926 224.443 365.702 224.992 365.254 225.44C364.806 225.888 364.256 226.112 363.606 226.112C362.955 226.112 362.406 225.888 361.958 225.44C361.51 224.992 361.286 224.443 361.286 223.792C361.286 223.141 361.51 222.592 361.958 222.144ZM363.606 225.232C363.99 225.232 364.31 225.093 364.566 224.816C364.832 224.528 364.966 224.187 364.966 223.792C364.966 223.397 364.832 223.061 364.566 222.784C364.31 222.496 363.99 222.352 363.606 222.352C363.232 222.352 362.912 222.496 362.646 222.784C362.379 223.061 362.246 223.397 362.246 223.792C362.246 224.187 362.379 224.528 362.646 224.816C362.912 225.093 363.232 225.232 363.606 225.232Z" fill="white"/>
<rect x="135" y="170.5" width="290" height="17" fill="#AD8467"/>
<path d="M437.256 184V174.448H435.464L436.088 173.328H438.44V184H437.256ZM448.358 182.592C447.622 183.659 446.71 184.192 445.622 184.192C444.534 184.192 443.622 183.659 442.886 182.592C442.171 181.557 441.814 180.251 441.814 178.672C441.814 177.093 442.171 175.787 442.886 174.752C443.622 173.685 444.534 173.152 445.622 173.152C446.71 173.152 447.622 173.685 448.358 174.752C449.073 175.787 449.43 177.093 449.43 178.672C449.43 180.251 449.073 181.557 448.358 182.592ZM447.462 175.424C446.971 174.635 446.358 174.24 445.622 174.24C444.886 174.24 444.273 174.635 443.782 175.424C443.259 176.256 442.998 177.339 442.998 178.672C442.998 180.005 443.259 181.088 443.782 181.92C444.273 182.709 444.886 183.104 445.622 183.104C446.358 183.104 446.971 182.709 447.462 181.92C447.985 181.088 448.246 180.005 448.246 178.672C448.246 177.339 447.985 176.256 447.462 175.424ZM451.372 173.904C451.82 173.456 452.369 173.232 453.02 173.232C453.671 173.232 454.22 173.456 454.668 173.904C455.116 174.352 455.34 174.901 455.34 175.552C455.34 176.203 455.116 176.752 454.668 177.2C454.22 177.648 453.671 177.872 453.02 177.872C452.369 177.872 451.82 177.648 451.372 177.2C450.924 176.752 450.7 176.203 450.7 175.552C450.7 174.901 450.924 174.352 451.372 173.904ZM453.02 176.992C453.404 176.992 453.724 176.853 453.98 176.576C454.247 176.288 454.38 175.947 454.38 175.552C454.38 175.157 454.247 174.821 453.98 174.544C453.724 174.256 453.404 174.112 453.02 174.112C452.647 174.112 452.327 174.256 452.06 174.544C451.793 174.821 451.66 175.157 451.66 175.552C451.66 175.947 451.793 176.288 452.06 176.576C452.327 176.853 452.647 176.992 453.02 176.992ZM452.428 183.84L458.652 173.12L459.276 173.472L453.052 184.208L452.428 183.84ZM457.036 180.144C457.484 179.696 458.033 179.472 458.684 179.472C459.335 179.472 459.884 179.696 460.332 180.144C460.78 180.592 461.004 181.141 461.004 181.792C461.004 182.443 460.78 182.992 460.332 183.44C459.884 183.888 459.335 184.112 458.684 184.112C458.033 184.112 457.484 183.888 457.036 183.44C456.588 182.992 456.364 182.443 456.364 181.792C456.364 181.141 456.588 180.592 457.036 180.144ZM458.684 183.232C459.068 183.232 459.388 183.093 459.644 182.816C459.911 182.528 460.044 182.187 460.044 181.792C460.044 181.397 459.911 181.061 459.644 180.784C459.388 180.496 459.068 180.352 458.684 180.352C458.311 180.352 457.991 180.496 457.724 180.784C457.457 181.061 457.324 181.397 457.324 181.792C457.324 182.187 457.457 182.528 457.724 182.816C457.991 183.093 458.311 183.232 458.684 183.232Z" fill="white"/>
<rect x="135" y="128.5" width="348" height="17" fill="#AD8467"/>
<path d="M495.256 142V132.448H493.464L494.088 131.328H496.44V142H495.256ZM505.384 142H498.488L502.376 137.504C503.037 136.725 503.453 136.208 503.624 135.952C504.018 135.387 504.216 134.843 504.216 134.32C504.216 133.712 504.018 133.216 503.624 132.832C503.229 132.437 502.717 132.24 502.088 132.24C501.32 132.24 500.728 132.555 500.312 133.184C500.088 133.525 499.97 133.947 499.96 134.448H498.776C498.818 133.541 499.085 132.805 499.576 132.24C500.216 131.515 501.058 131.152 502.104 131.152C503.053 131.152 503.837 131.456 504.456 132.064C505.085 132.661 505.4 133.419 505.4 134.336C505.4 135.051 505.117 135.813 504.552 136.624C504.264 137.019 503.778 137.611 503.096 138.4L500.872 140.912H505.384V142ZM507.981 131.904C508.429 131.456 508.979 131.232 509.629 131.232C510.28 131.232 510.829 131.456 511.277 131.904C511.725 132.352 511.949 132.901 511.949 133.552C511.949 134.203 511.725 134.752 511.277 135.2C510.829 135.648 510.28 135.872 509.629 135.872C508.979 135.872 508.429 135.648 507.981 135.2C507.533 134.752 507.309 134.203 507.309 133.552C507.309 132.901 507.533 132.352 507.981 131.904ZM509.629 134.992C510.013 134.992 510.333 134.853 510.589 134.576C510.856 134.288 510.989 133.947 510.989 133.552C510.989 133.157 510.856 132.821 510.589 132.544C510.333 132.256 510.013 132.112 509.629 132.112C509.256 132.112 508.936 132.256 508.669 132.544C508.403 132.821 508.269 133.157 508.269 133.552C508.269 133.947 508.403 134.288 508.669 134.576C508.936 134.853 509.256 134.992 509.629 134.992ZM509.037 141.84L515.261 131.12L515.885 131.472L509.661 142.208L509.037 141.84ZM513.645 138.144C514.093 137.696 514.643 137.472 515.293 137.472C515.944 137.472 516.493 137.696 516.941 138.144C517.389 138.592 517.613 139.141 517.613 139.792C517.613 140.443 517.389 140.992 516.941 141.44C516.493 141.888 515.944 142.112 515.293 142.112C514.643 142.112 514.093 141.888 513.645 141.44C513.197 140.992 512.973 140.443 512.973 139.792C512.973 139.141 513.197 138.592 513.645 138.144ZM515.293 141.232C515.677 141.232 515.997 141.093 516.253 140.816C516.52 140.528 516.653 140.187 516.653 139.792C516.653 139.397 516.52 139.061 516.253 138.784C515.997 138.496 515.677 138.352 515.293 138.352C514.92 138.352 514.6 138.496 514.333 138.784C514.067 139.061 513.933 139.397 513.933 139.792C513.933 140.187 514.067 140.528 514.333 140.816C514.6 141.093 514.92 141.232 515.293 141.232Z" fill="white"/>
<rect x="135" y="86.5" width="406" height="17" fill="#AD8467"/>
<path d="M553.256 100V90.448H551.464L552.088 89.328H554.44V100H553.256ZM563.07 88.736V96.896H564.382V97.984H563.07V100H561.886V97.984H556.414L563.07 88.736ZM558.51 96.896H561.886V92.176L558.51 96.896ZM566.388 89.904C566.836 89.456 567.385 89.232 568.036 89.232C568.686 89.232 569.236 89.456 569.684 89.904C570.132 90.352 570.356 90.9013 570.356 91.552C570.356 92.2027 570.132 92.752 569.684 93.2C569.236 93.648 568.686 93.872 568.036 93.872C567.385 93.872 566.836 93.648 566.388 93.2C565.94 92.752 565.715 92.2027 565.715 91.552C565.715 90.9013 565.94 90.352 566.388 89.904ZM568.036 92.992C568.42 92.992 568.74 92.8533 568.996 92.576C569.262 92.288 569.396 91.9467 569.396 91.552C569.396 91.1573 569.262 90.8213 568.996 90.544C568.74 90.256 568.42 90.112 568.036 90.112C567.662 90.112 567.342 90.256 567.076 90.544C566.809 90.8213 566.676 91.1573 566.676 91.552C566.676 91.9467 566.809 92.288 567.076 92.576C567.342 92.8533 567.662 92.992 568.036 92.992ZM567.444 99.84L573.668 89.12L574.292 89.472L568.068 100.208L567.444 99.84ZM572.052 96.144C572.5 95.696 573.049 95.472 573.7 95.472C574.35 95.472 574.9 95.696 575.348 96.144C575.796 96.592 576.02 97.1413 576.02 97.792C576.02 98.4427 575.796 98.992 575.348 99.44C574.9 99.888 574.35 100.112 573.7 100.112C573.049 100.112 572.5 99.888 572.052 99.44C571.604 98.992 571.38 98.4427 571.38 97.792C571.38 97.1413 571.604 96.592 572.052 96.144ZM573.7 99.232C574.084 99.232 574.404 99.0933 574.66 98.816C574.926 98.528 575.06 98.1867 575.06 97.792C575.06 97.3973 574.926 97.0613 574.66 96.784C574.404 96.496 574.084 96.352 573.7 96.352C573.326 96.352 573.006 96.496 572.74 96.784C572.473 97.0613 572.34 97.3973 572.34 97.792C572.34 98.1867 572.473 98.528 572.74 98.816C573.006 99.0933 573.326 99.232 573.7 99.232Z" fill="white"/>
<rect x="135" y="44.5" width="435" height="17" fill="#AD8467"/>
<path d="M582.256 58V48.448H580.464L581.088 47.328H583.44V58H582.256ZM592.758 47.328V48.416H589.334L588.646 50.72C588.827 50.6773 589.051 50.656 589.318 50.656C590.374 50.656 591.222 51.008 591.862 51.712C592.512 52.416 592.838 53.296 592.838 54.352C592.838 55.504 592.459 56.432 591.702 57.136C590.955 57.84 590.038 58.192 588.95 58.192C588.032 58.192 587.238 57.9147 586.566 57.36C586.182 57.0293 585.872 56.6667 585.638 56.272L586.582 55.6C586.742 55.92 586.982 56.208 587.302 56.464C587.824 56.8907 588.4 57.104 589.03 57.104C589.776 57.104 590.4 56.8373 590.902 56.304C591.403 55.7707 591.654 55.1253 591.654 54.368C591.654 53.6 591.403 52.9707 590.902 52.48C590.411 51.9893 589.787 51.744 589.03 51.744C588.358 51.744 587.67 51.9893 586.966 52.48L588.518 47.328H592.758ZM595.388 47.904C595.836 47.456 596.385 47.232 597.036 47.232C597.686 47.232 598.236 47.456 598.684 47.904C599.132 48.352 599.356 48.9013 599.356 49.552C599.356 50.2027 599.132 50.752 598.684 51.2C598.236 51.648 597.686 51.872 597.036 51.872C596.385 51.872 595.836 51.648 595.388 51.2C594.94 50.752 594.715 50.2027 594.715 49.552C594.715 48.9013 594.94 48.352 595.388 47.904ZM597.036 50.992C597.42 50.992 597.74 50.8533 597.996 50.576C598.262 50.288 598.396 49.9467 598.396 49.552C598.396 49.1573 598.262 48.8213 597.996 48.544C597.74 48.256 597.42 48.112 597.036 48.112C596.662 48.112 596.342 48.256 596.076 48.544C595.809 48.8213 595.676 49.1573 595.676 49.552C595.676 49.9467 595.809 50.288 596.076 50.576C596.342 50.8533 596.662 50.992 597.036 50.992ZM596.444 57.84L602.668 47.12L603.292 47.472L597.068 58.208L596.444 57.84ZM601.052 54.144C601.5 53.696 602.049 53.472 602.7 53.472C603.35 53.472 603.9 53.696 604.348 54.144C604.796 54.592 605.02 55.1413 605.02 55.792C605.02 56.4427 604.796 56.992 604.348 57.44C603.9 57.888 603.35 58.112 602.7 58.112C602.049 58.112 601.5 57.888 601.052 57.44C600.604 56.992 600.38 56.4427 600.38 55.792C600.38 55.1413 600.604 54.592 601.052 54.144ZM602.7 57.232C603.084 57.232 603.404 57.0933 603.66 56.816C603.926 56.528 604.06 56.1867 604.06 55.792C604.06 55.3973 603.926 55.0613 603.66 54.784C603.404 54.496 603.084 54.352 602.7 54.352C602.326 54.352 602.006 54.496 601.74 54.784C601.473 55.0613 601.34 55.3973 601.34 55.792C601.34 56.1867 601.473 56.528 601.74 56.816C602.006 57.0933 602.326 57.232 602.7 57.232Z" fill="white"/>
<rect x="135" y="2.5" width="522" height="17" fill="#AD8467"/>
<path d="M669.256 16V6.448H667.464L668.088 5.328H670.44V16H669.256ZM678.286 10.448C679.363 10.928 679.902 11.7973 679.902 13.056C679.902 13.9413 679.614 14.688 679.038 15.296C678.472 15.8933 677.672 16.192 676.638 16.192C675.603 16.192 674.798 15.8933 674.222 15.296C673.656 14.688 673.374 13.9413 673.374 13.056C673.374 11.7973 673.912 10.928 674.99 10.448C674.126 9.94667 673.694 9.168 673.694 8.112C673.694 7.30133 673.955 6.608 674.478 6.032C675 5.44533 675.72 5.152 676.638 5.152C677.555 5.152 678.275 5.44533 678.798 6.032C679.32 6.608 679.582 7.30133 679.582 8.112C679.582 9.168 679.15 9.94667 678.286 10.448ZM675.326 9.44C675.678 9.792 676.115 9.968 676.638 9.968C677.16 9.968 677.592 9.792 677.934 9.44C678.286 9.088 678.462 8.65067 678.462 8.128C678.462 7.56267 678.28 7.10933 677.918 6.768C677.566 6.416 677.139 6.24 676.638 6.24C676.136 6.24 675.704 6.416 675.342 6.768C674.99 7.10933 674.814 7.56267 674.814 8.128C674.814 8.65067 674.984 9.088 675.326 9.44ZM675.134 14.528C675.518 14.912 676.019 15.104 676.638 15.104C677.256 15.104 677.758 14.912 678.142 14.528C678.526 14.1333 678.718 13.632 678.718 13.024C678.718 12.4267 678.52 11.9413 678.126 11.568C677.742 11.184 677.246 10.992 676.638 10.992C676.03 10.992 675.528 11.184 675.134 11.568C674.75 11.9413 674.558 12.4267 674.558 13.024C674.558 13.632 674.75 14.1333 675.134 14.528ZM682.388 5.904C682.836 5.456 683.385 5.232 684.036 5.232C684.686 5.232 685.236 5.456 685.684 5.904C686.132 6.352 686.356 6.90133 686.356 7.552C686.356 8.20267 686.132 8.752 685.684 9.2C685.236 9.648 684.686 9.872 684.036 9.872C683.385 9.872 682.836 9.648 682.388 9.2C681.94 8.752 681.715 8.20267 681.715 7.552C681.715 6.90133 681.94 6.352 682.388 5.904ZM684.036 8.992C684.42 8.992 684.74 8.85333 684.996 8.576C685.262 8.288 685.396 7.94667 685.396 7.552C685.396 7.15733 685.262 6.82133 684.996 6.544C684.74 6.256 684.42 6.112 684.036 6.112C683.662 6.112 683.342 6.256 683.076 6.544C682.809 6.82133 682.676 7.15733 682.676 7.552C682.676 7.94667 682.809 8.288 683.076 8.576C683.342 8.85333 683.662 8.992 684.036 8.992ZM683.444 15.84L689.668 5.12L690.292 5.472L684.068 16.208L683.444 15.84ZM688.052 12.144C688.5 11.696 689.049 11.472 689.7 11.472C690.35 11.472 690.9 11.696 691.348 12.144C691.796 12.592 692.02 13.1413 692.02 13.792C692.02 14.4427 691.796 14.992 691.348 15.44C690.9 15.888 690.35 16.112 689.7 16.112C689.049 16.112 688.5 15.888 688.052 15.44C687.604 14.992 687.38 14.4427 687.38 13.792C687.38 13.1413 687.604 12.592 688.052 12.144ZM689.7 15.232C690.084 15.232 690.404 15.0933 690.66 14.816C690.926 14.528 691.06 14.1867 691.06 13.792C691.06 13.3973 690.926 13.0613 690.66 12.784C690.404 12.496 690.084 12.352 689.7 12.352C689.326 12.352 689.006 12.496 688.74 12.784C688.473 13.0613 688.34 13.3973 688.34 13.792C688.34 14.1867 688.473 14.528 688.74 14.816C689.006 15.0933 689.326 15.232 689.7 15.232Z" fill="white"/>
<path d="M53.6246 268V266.496H53.3366C52.5793 266.496 51.902 266.405 51.3046 266.224C50.718 266.043 50.2486 265.813 49.8966 265.536C49.5446 265.259 49.2513 264.928 49.0166 264.544C48.7926 264.16 48.638 263.792 48.5526 263.44C48.478 263.077 48.4406 262.709 48.4406 262.336C48.4406 261.963 48.478 261.6 48.5526 261.248C48.638 260.885 48.7926 260.512 49.0166 260.128C49.2513 259.744 49.5446 259.413 49.8966 259.136C50.2486 258.859 50.718 258.629 51.3046 258.448C51.902 258.267 52.5793 258.176 53.3366 258.176H53.6246V256.896H54.8086V258.176H55.0966C55.854 258.176 56.526 258.267 57.1126 258.448C57.71 258.629 58.1846 258.859 58.5366 259.136C58.8886 259.413 59.1766 259.744 59.4006 260.128C59.6353 260.512 59.79 260.885 59.8646 261.248C59.95 261.6 59.9926 261.963 59.9926 262.336C59.9926 262.709 59.95 263.077 59.8646 263.44C59.79 263.792 59.6353 264.16 59.4006 264.544C59.1766 264.928 58.8886 265.259 58.5366 265.536C58.1846 265.813 57.71 266.043 57.1126 266.224C56.526 266.405 55.854 266.496 55.0966 266.496H54.8086V268H53.6246ZM53.6246 265.376V259.296H53.3046C52.6113 259.296 52.014 259.387 51.5126 259.568C51.0113 259.749 50.6326 260 50.3766 260.32C50.1206 260.629 49.934 260.949 49.8166 261.28C49.71 261.611 49.6566 261.963 49.6566 262.336C49.6566 262.709 49.71 263.061 49.8166 263.392C49.934 263.723 50.1206 264.048 50.3766 264.368C50.6326 264.677 51.0113 264.923 51.5126 265.104C52.014 265.285 52.6113 265.376 53.3046 265.376H53.6246ZM54.8086 259.296V265.376H55.1286C55.822 265.376 56.4193 265.285 56.9206 265.104C57.422 264.923 57.8006 264.677 58.0566 264.368C58.3126 264.048 58.494 263.723 58.6006 263.392C58.718 263.061 58.7766 262.709 58.7766 262.336C58.7766 261.963 58.718 261.611 58.6006 261.28C58.494 260.949 58.3126 260.629 58.0566 260.32C57.8006 260 57.422 259.749 56.9206 259.568C56.4193 259.387 55.822 259.296 55.1286 259.296H54.8086ZM69.5969 268V259.856L62.1729 268.48V257.328H63.3569V265.504L70.7809 256.88V268H69.5969ZM74.7163 257.328V261.664H80.1883V257.328H81.3723V268H80.1883V262.784H74.7163V268H73.5323V257.328H74.7163ZM91.262 268L90.014 264.992H85.47L84.19 268H82.878L87.79 256.816L92.574 268H91.262ZM85.934 263.872H89.55L87.758 259.6L85.934 263.872ZM95.2631 257.328V261.664H100.735V257.328H101.919V268H100.735V262.784H95.2631V268H94.0791V257.328H95.2631ZM112.833 258.208V259.68C112.406 259.253 111.942 258.923 111.441 258.688C110.833 258.411 110.22 258.272 109.601 258.272C108.374 258.272 107.35 258.704 106.529 259.568C105.718 260.421 105.313 261.472 105.313 262.72C105.313 264.064 105.756 265.125 106.641 265.904C107.537 266.683 108.529 267.072 109.617 267.072C110.3 267.072 110.961 266.907 111.601 266.576C112.049 266.352 112.46 266.053 112.833 265.68V267.152C111.862 267.845 110.79 268.192 109.617 268.192C108.038 268.192 106.721 267.664 105.665 266.608C104.62 265.552 104.097 264.251 104.097 262.704C104.097 261.115 104.625 259.792 105.681 258.736C106.748 257.68 108.081 257.152 109.681 257.152C110.854 257.152 111.905 257.504 112.833 258.208ZM115.017 268V257.328H116.201V261.76H117.641C120.094 261.76 121.321 262.763 121.321 264.768C121.321 265.771 121.006 266.56 120.377 267.136C119.758 267.712 118.921 268 117.865 268H115.017ZM116.201 262.88V266.88H117.577C118.483 266.88 119.139 266.683 119.545 266.288C119.918 265.936 120.105 265.429 120.105 264.768C120.105 264 119.817 263.461 119.241 263.152C118.91 262.971 118.313 262.88 117.449 262.88H116.201ZM122.441 257.328H123.625V268H122.441V257.328Z" fill="white"/>
<path d="M2.82563 215.328V219.664H8.29763V215.328H9.48163V226H8.29763V220.784H2.82563V226H1.64163V215.328H2.82563ZM17.7714 215.328V216.448H13.4194V219.616H17.6434V220.736H13.4194V224.88H17.7714V226H12.2354V215.328H17.7714ZM20.8821 215.328H27.3781V224.88H28.5941V228.24H27.4741V226H19.9221V228.24H18.8021V224.88C19.1648 224.891 19.4955 224.763 19.7941 224.496C20.0928 224.219 20.3275 223.867 20.4981 223.44C20.7541 222.789 20.8821 221.856 20.8821 220.64V215.328ZM22.0661 216.448V220.64C22.0661 221.952 21.9381 222.944 21.6821 223.616C21.5008 224.096 21.2288 224.517 20.8661 224.88H26.1941V216.448H22.0661ZM30.1885 215.328H32.1085C33.1752 215.328 33.9912 215.552 34.5565 216C35.1965 216.491 35.5165 217.227 35.5165 218.208C35.5165 219.125 35.1645 219.824 34.4605 220.304C35.1432 220.475 35.6498 220.821 35.9805 221.344C36.3218 221.856 36.4925 222.405 36.4925 222.992C36.4925 223.472 36.3858 223.915 36.1725 224.32C35.9698 224.725 35.7138 225.051 35.4045 225.296C34.8072 225.765 33.9538 226 32.8445 226H30.1885V215.328ZM31.3725 216.448V220.016H32.2685C32.4285 220.016 32.5832 220.011 32.7325 220C32.8818 219.979 33.0578 219.936 33.2605 219.872C33.4738 219.797 33.6552 219.701 33.8045 219.584C33.9645 219.467 34.0978 219.291 34.2045 219.056C34.3112 218.821 34.3645 218.549 34.3645 218.24C34.3645 217.909 34.3005 217.627 34.1725 217.392C34.0445 217.147 33.9005 216.965 33.7405 216.848C33.5805 216.731 33.3885 216.64 33.1645 216.576C32.9405 216.512 32.7698 216.475 32.6525 216.464C32.5352 216.453 32.4178 216.448 32.3005 216.448H31.3725ZM31.3725 221.072V224.88H32.7325C33.5965 224.88 34.2205 224.731 34.6045 224.432C35.0738 224.091 35.3085 223.6 35.3085 222.96C35.3085 222.245 35.0045 221.723 34.3965 221.392C34.0125 221.179 33.4098 221.072 32.5885 221.072H31.3725ZM46.0969 226V217.856L38.6729 226.48V215.328H39.8569V223.504L47.2809 214.88V226H46.0969ZM54.5443 215.328H55.7283V219.904L59.7923 215.328H61.2643L56.7843 220.304L61.3923 226H59.8883L55.9843 221.12L55.7283 221.408V226H54.5443V221.408L54.2883 221.12L50.3843 226H48.8803L53.4883 220.304L49.0083 215.328H50.4803L54.5443 219.904V215.328ZM70.4094 226V217.856L62.9854 226.48V215.328H64.1694V223.504L71.5934 214.88V226H70.4094ZM75.1928 226H73.9768L75.7528 214.736L79.8488 223.744L84.0248 214.72L85.6888 226H84.4728L83.4648 218.576L79.8328 226.448L76.2488 218.576L75.1928 226ZM97.0693 224.608C96.0026 225.664 94.6906 226.192 93.1333 226.192C91.5759 226.192 90.2586 225.664 89.1813 224.608C88.1146 223.552 87.5813 222.24 87.5813 220.672C87.5813 219.093 88.1199 217.781 89.1973 216.736C90.2746 215.68 91.5866 215.152 93.1333 215.152C94.6799 215.152 95.9919 215.68 97.0693 216.736C98.1466 217.781 98.6853 219.093 98.6853 220.672C98.6853 222.24 98.1466 223.552 97.0693 224.608ZM96.2053 217.552C95.3626 216.699 94.3386 216.272 93.1333 216.272C91.9279 216.272 90.9039 216.699 90.0613 217.552C89.2186 218.405 88.7973 219.445 88.7973 220.672C88.7973 221.899 89.2186 222.939 90.0613 223.792C90.9039 224.645 91.9279 225.072 93.1333 225.072C94.3386 225.072 95.3626 224.645 96.2053 223.792C97.0479 222.939 97.4693 221.899 97.4693 220.672C97.4693 219.445 97.0479 218.405 96.2053 217.552ZM109.02 216.208V217.68C108.594 217.253 108.13 216.923 107.628 216.688C107.02 216.411 106.407 216.272 105.788 216.272C104.562 216.272 103.538 216.704 102.716 217.568C101.906 218.421 101.5 219.472 101.5 220.72C101.5 222.064 101.943 223.125 102.828 223.904C103.724 224.683 104.716 225.072 105.804 225.072C106.487 225.072 107.148 224.907 107.788 224.576C108.236 224.352 108.647 224.053 109.02 223.68V225.152C108.05 225.845 106.978 226.192 105.804 226.192C104.226 226.192 102.908 225.664 101.852 224.608C100.807 223.552 100.284 222.251 100.284 220.704C100.284 219.115 100.812 217.792 101.868 216.736C102.935 215.68 104.268 215.152 105.868 215.152C107.042 215.152 108.092 215.504 109.02 216.208ZM116.42 216.448H113.828V226H112.644V216.448H110.052V215.328H116.42V216.448ZM118.017 226V215.328H119.201V219.76H120.641C123.094 219.76 124.321 220.763 124.321 222.768C124.321 223.771 124.006 224.56 123.377 225.136C122.758 225.712 121.921 226 120.865 226H118.017ZM119.201 220.88V224.88H120.577C121.483 224.88 122.139 224.683 122.545 224.288C122.918 223.936 123.105 223.429 123.105 222.768C123.105 222 122.817 221.461 122.241 221.152C121.91 220.971 121.313 220.88 120.449 220.88H119.201Z" fill="white"/>
<path d="M115.626 173.328H116.81V184H115.626V173.328ZM124.78 174.448H122.188V184H121.004V174.448H118.412V173.328H124.78V174.448Z" fill="white"/>
<path d="M59.7483 132.448H57.1562V142H55.9723V132.448H53.3803V131.328H59.7483V132.448ZM69.6943 140.608C68.6276 141.664 67.3156 142.192 65.7583 142.192C64.2009 142.192 62.8836 141.664 61.8063 140.608C60.7396 139.552 60.2063 138.24 60.2063 136.672C60.2063 135.093 60.7449 133.781 61.8223 132.736C62.8996 131.68 64.2116 131.152 65.7583 131.152C67.3049 131.152 68.6169 131.68 69.6943 132.736C70.7716 133.781 71.3103 135.093 71.3103 136.672C71.3103 138.24 70.7716 139.552 69.6943 140.608ZM68.8303 133.552C67.9876 132.699 66.9636 132.272 65.7583 132.272C64.5529 132.272 63.5289 132.699 62.6863 133.552C61.8436 134.405 61.4223 135.445 61.4223 136.672C61.4223 137.899 61.8436 138.939 62.6863 139.792C63.5289 140.645 64.5529 141.072 65.7583 141.072C66.9636 141.072 67.9876 140.645 68.8303 139.792C69.6729 138.939 70.0943 137.899 70.0943 136.672C70.0943 135.445 69.6729 134.405 68.8303 133.552ZM73.4854 131.328H75.4214C76.6374 131.328 77.5334 131.579 78.1094 132.08C78.76 132.635 79.0854 133.397 79.0854 134.368C79.0854 135.2 78.8027 135.909 78.2374 136.496C77.6827 137.072 76.84 137.36 75.7094 137.36H74.6694V142H73.4854V131.328ZM74.6694 132.448V136.24H75.6454C76.3494 136.24 76.8987 136.069 77.2934 135.728C77.6987 135.387 77.9014 134.912 77.9014 134.304C77.9014 133.067 77.1174 132.448 75.5494 132.448H74.6694ZM80.7823 142V131.328H85.6463V132.448H81.9663V142H80.7823ZM95.6005 140.608C94.5338 141.664 93.2218 142.192 91.6645 142.192C90.1072 142.192 88.7898 141.664 87.7125 140.608C86.6458 139.552 86.1125 138.24 86.1125 136.672C86.1125 135.093 86.6512 133.781 87.7285 132.736C88.8058 131.68 90.1178 131.152 91.6645 131.152C93.2112 131.152 94.5232 131.68 95.6005 132.736C96.6778 133.781 97.2165 135.093 97.2165 136.672C97.2165 138.24 96.6778 139.552 95.6005 140.608ZM94.7365 133.552C93.8938 132.699 92.8698 132.272 91.6645 132.272C90.4592 132.272 89.4352 132.699 88.5925 133.552C87.7498 134.405 87.3285 135.445 87.3285 136.672C87.3285 137.899 87.7498 138.939 88.5925 139.792C89.4352 140.645 90.4592 141.072 91.6645 141.072C92.8698 141.072 93.8938 140.645 94.7365 139.792C95.5792 138.939 96.0005 137.899 96.0005 136.672C96.0005 135.445 95.5792 134.405 94.7365 133.552ZM99.3916 131.328H101.312C102.378 131.328 103.194 131.552 103.76 132C104.4 132.491 104.72 133.227 104.72 134.208C104.72 135.125 104.368 135.824 103.664 136.304C104.346 136.475 104.853 136.821 105.184 137.344C105.525 137.856 105.696 138.405 105.696 138.992C105.696 139.472 105.589 139.915 105.376 140.32C105.173 140.725 104.917 141.051 104.608 141.296C104.01 141.765 103.157 142 102.048 142H99.3916V131.328ZM100.576 132.448V136.016H101.472C101.632 136.016 101.786 136.011 101.936 136C102.085 135.979 102.261 135.936 102.464 135.872C102.677 135.797 102.858 135.701 103.008 135.584C103.168 135.467 103.301 135.291 103.408 135.056C103.514 134.821 103.568 134.549 103.568 134.24C103.568 133.909 103.504 133.627 103.376 133.392C103.248 133.147 103.104 132.965 102.944 132.848C102.784 132.731 102.592 132.64 102.368 132.576C102.144 132.512 101.973 132.475 101.856 132.464C101.738 132.453 101.621 132.448 101.504 132.448H100.576ZM100.576 137.072V140.88H101.936C102.8 140.88 103.424 140.731 103.808 140.432C104.277 140.091 104.512 139.6 104.512 138.96C104.512 138.245 104.208 137.723 103.6 137.392C103.216 137.179 102.613 137.072 101.792 137.072H100.576ZM108.964 131.328H115.46V142H114.276V132.448H110.148V138.176C110.148 138.677 110.143 139.056 110.132 139.312C110.121 139.557 110.036 139.909 109.876 140.368C109.727 140.816 109.497 141.179 109.188 141.456C108.708 141.883 108.1 142.096 107.364 142.096C107.193 142.096 106.98 142.064 106.724 142V140.88C106.937 140.944 107.135 140.976 107.316 140.976C107.732 140.976 108.079 140.837 108.356 140.56C108.548 140.368 108.692 140.096 108.788 139.744C108.884 139.381 108.937 139.077 108.948 138.832C108.959 138.587 108.964 138.208 108.964 137.696V131.328ZM117.324 142L120.46 137.264C119.734 137.189 119.137 136.965 118.668 136.592C118.049 136.091 117.74 135.365 117.74 134.416C117.74 133.541 117.985 132.832 118.476 132.288C119.052 131.648 119.937 131.328 121.132 131.328H123.628V142H122.444V137.328H121.804L118.764 142H117.324ZM122.444 132.448H121.292C120.438 132.448 119.83 132.635 119.468 133.008C119.126 133.371 118.956 133.829 118.956 134.384C118.956 135.013 119.158 135.493 119.564 135.824C119.948 136.123 120.492 136.272 121.196 136.272H122.444V132.448Z" fill="white"/>
<path d="M68.4405 89.328H69.8805L73.2085 95.616L75.9925 89.328H77.2725L72.4565 100H71.1765L72.5365 97.024L68.4405 89.328ZM86.9266 90.208V91.68C86.5 91.2533 86.036 90.9227 85.5346 90.688C84.9266 90.4107 84.3133 90.272 83.6946 90.272C82.468 90.272 81.444 90.704 80.6226 91.568C79.812 92.4213 79.4066 93.472 79.4066 94.72C79.4066 96.064 79.8493 97.1253 80.7346 97.904C81.6306 98.6827 82.6226 99.072 83.7106 99.072C84.3933 99.072 85.0546 98.9067 85.6946 98.576C86.1426 98.352 86.5533 98.0533 86.9266 97.68V99.152C85.956 99.8453 84.884 100.192 83.7106 100.192C82.132 100.192 80.8146 99.664 79.7586 98.608C78.7133 97.552 78.1906 96.2507 78.1906 94.704C78.1906 93.1147 78.7186 91.792 79.7746 90.736C80.8413 89.68 82.1746 89.152 83.7746 89.152C84.948 89.152 85.9986 89.504 86.9266 90.208ZM90.1984 89.328H96.6944V100H95.5104V90.448H91.3824V96.176C91.3824 96.6773 91.377 97.056 91.3664 97.312C91.3557 97.5573 91.2704 97.9093 91.1104 98.368C90.961 98.816 90.7317 99.1787 90.4224 99.456C89.9424 99.8827 89.3344 100.096 88.5984 100.096C88.4277 100.096 88.2144 100.064 87.9584 100V98.88C88.1717 98.944 88.369 98.976 88.5504 98.976C88.9664 98.976 89.313 98.8373 89.5904 98.56C89.7824 98.368 89.9264 98.096 90.0224 97.744C90.1184 97.3813 90.1717 97.0773 90.1824 96.832C90.193 96.5867 90.1984 96.208 90.1984 95.696V89.328ZM98.2061 89.328H99.6461L102.974 95.616L105.758 89.328H107.038L102.222 100H100.942L102.302 97.024L98.2061 89.328ZM108.548 100V89.328H113.412V90.448H109.732V100H108.548ZM122.441 100V91.856L115.017 100.48V89.328H116.201V97.504L123.625 88.88V100H122.441Z" fill="white"/>
<path d="M5.4385 47.328H13.2785V58H12.0945V48.448H6.6225V58H5.4385V47.328ZM16.0323 47.328H17.9683C19.1843 47.328 20.0803 47.5787 20.6563 48.08C21.3069 48.6347 21.6323 49.3973 21.6323 50.368C21.6323 51.2 21.3496 51.9093 20.7843 52.496C20.2296 53.072 19.3869 53.36 18.2563 53.36H17.2163V58H16.0323V47.328ZM17.2163 48.448V52.24H18.1923C18.8963 52.24 19.4456 52.0693 19.8403 51.728C20.2456 51.3867 20.4483 50.912 20.4483 50.304C20.4483 49.0667 19.6643 48.448 18.0963 48.448H17.2163ZM32.2411 56.608C31.1745 57.664 29.8625 58.192 28.3051 58.192C26.7478 58.192 25.4305 57.664 24.3531 56.608C23.2865 55.552 22.7531 54.24 22.7531 52.672C22.7531 51.0933 23.2918 49.7813 24.3691 48.736C25.4465 47.68 26.7585 47.152 28.3051 47.152C29.8518 47.152 31.1638 47.68 32.2411 48.736C33.3185 49.7813 33.8571 51.0933 33.8571 52.672C33.8571 54.24 33.3185 55.552 32.2411 56.608ZM31.3771 49.552C30.5345 48.6987 29.5105 48.272 28.3051 48.272C27.0998 48.272 26.0758 48.6987 25.2331 49.552C24.3905 50.4053 23.9691 51.4453 23.9691 52.672C23.9691 53.8987 24.3905 54.9387 25.2331 55.792C26.0758 56.6453 27.0998 57.072 28.3051 57.072C29.5105 57.072 30.5345 56.6453 31.3771 55.792C32.2198 54.9387 32.6411 53.8987 32.6411 52.672C32.6411 51.4453 32.2198 50.4053 31.3771 49.552ZM43.4563 58V49.856L36.0323 58.48V47.328H37.2163V55.504L44.6403 46.88V58H43.4563ZM48.5276 49.424L47.6156 48.704C48.309 47.6693 49.3276 47.152 50.6716 47.152C51.6316 47.152 52.3836 47.4027 52.9276 47.904C53.4823 48.4053 53.7596 49.0613 53.7596 49.872C53.7596 50.3947 53.621 50.8533 53.3436 51.248C53.077 51.632 52.725 51.9253 52.2876 52.128C52.981 52.288 53.509 52.6187 53.8716 53.12C54.245 53.6213 54.4316 54.208 54.4316 54.88C54.4316 55.9893 53.989 56.8587 53.1036 57.488C52.421 57.9573 51.6103 58.192 50.6716 58.192C49.701 58.192 48.8956 57.9467 48.2556 57.456C47.6156 56.9653 47.1356 56.3573 46.8156 55.632L47.9676 55.12C48.181 55.7173 48.533 56.192 49.0236 56.544C49.5143 56.896 50.0796 57.072 50.7196 57.072C51.3703 57.072 51.9143 56.9227 52.3516 56.624C52.9276 56.2187 53.2156 55.648 53.2156 54.912C53.2156 53.5147 52.2663 52.816 50.3676 52.816H49.4076V51.696H50.3676C51.0716 51.696 51.6103 51.5253 51.9836 51.184C52.357 50.8427 52.5436 50.4107 52.5436 49.888C52.5436 49.4293 52.3996 49.056 52.1116 48.768C51.7916 48.4373 51.3116 48.272 50.6716 48.272C49.7756 48.272 49.061 48.656 48.5276 49.424ZM56.6104 47.328H58.5304C59.597 47.328 60.413 47.552 60.9784 48C61.6184 48.4907 61.9384 49.2267 61.9384 50.208C61.9384 51.1253 61.5864 51.824 60.8824 52.304C61.565 52.4747 62.0717 52.8213 62.4024 53.344C62.7437 53.856 62.9144 54.4053 62.9144 54.992C62.9144 55.472 62.8077 55.9147 62.5944 56.32C62.3917 56.7253 62.1357 57.0507 61.8264 57.296C61.229 57.7653 60.3757 58 59.2664 58H56.6104V47.328ZM57.7944 48.448V52.016H58.6904C58.8504 52.016 59.005 52.0107 59.1544 52C59.3037 51.9787 59.4797 51.936 59.6824 51.872C59.8957 51.7973 60.077 51.7013 60.2264 51.584C60.3864 51.4667 60.5197 51.2907 60.6264 51.056C60.733 50.8213 60.7864 50.5493 60.7864 50.24C60.7864 49.9093 60.7224 49.6267 60.5944 49.392C60.4664 49.1467 60.3224 48.9653 60.1624 48.848C60.0024 48.7307 59.8104 48.64 59.5864 48.576C59.3624 48.512 59.1917 48.4747 59.0744 48.464C58.957 48.4533 58.8397 48.448 58.7224 48.448H57.7944ZM57.7944 53.072V56.88H59.1544C60.0184 56.88 60.6424 56.7307 61.0264 56.432C61.4957 56.0907 61.7304 55.6 61.7304 54.96C61.7304 54.2453 61.4264 53.7227 60.8184 53.392C60.4344 53.1787 59.8317 53.072 59.0104 53.072H57.7944ZM74.0068 56.608C72.9401 57.664 71.6281 58.192 70.0708 58.192C68.5134 58.192 67.1961 57.664 66.1188 56.608C65.0521 55.552 64.5188 54.24 64.5188 52.672C64.5188 51.0933 65.0574 49.7813 66.1348 48.736C67.2121 47.68 68.5241 47.152 70.0708 47.152C71.6174 47.152 72.9294 47.68 74.0068 48.736C75.0841 49.7813 75.6228 51.0933 75.6228 52.672C75.6228 54.24 75.0841 55.552 74.0068 56.608ZM73.1428 49.552C72.3001 48.6987 71.2761 48.272 70.0708 48.272C68.8654 48.272 67.8414 48.6987 66.9988 49.552C66.1561 50.4053 65.7348 51.4453 65.7348 52.672C65.7348 53.8987 66.1561 54.9387 66.9988 55.792C67.8414 56.6453 68.8654 57.072 70.0708 57.072C71.2761 57.072 72.3001 56.6453 73.1428 55.792C73.9854 54.9387 74.4068 53.8987 74.4068 52.672C74.4068 51.4453 73.9854 50.4053 73.1428 49.552ZM78.7259 47.328H85.2219V56.88H86.4379V60.24H85.3179V58H77.7659V60.24H76.6459V56.88C77.0085 56.8907 77.3392 56.7627 77.6379 56.496C77.9365 56.2187 78.1712 55.8667 78.3419 55.44C78.5979 54.7893 78.7259 53.856 78.7259 52.64V47.328ZM79.9099 48.448V52.64C79.9099 53.952 79.7819 54.944 79.5259 55.616C79.3445 56.096 79.0725 56.5173 78.7099 56.88H84.0379V48.448H79.9099ZM96.1923 48.208V49.68C95.7656 49.2533 95.3016 48.9227 94.8003 48.688C94.1923 48.4107 93.5789 48.272 92.9603 48.272C91.7336 48.272 90.7096 48.704 89.8883 49.568C89.0776 50.4213 88.6723 51.472 88.6723 52.72C88.6723 54.064 89.1149 55.1253 90.0003 55.904C90.8963 56.6827 91.8883 57.072 92.9763 57.072C93.6589 57.072 94.3203 56.9067 94.9603 56.576C95.4083 56.352 95.8189 56.0533 96.1923 55.68V57.152C95.2216 57.8453 94.1496 58.192 92.9763 58.192C91.3976 58.192 90.0803 57.664 89.0243 56.608C87.9789 55.552 87.4563 54.2507 87.4563 52.704C87.4563 51.1147 87.9843 49.792 89.0403 48.736C90.1069 47.68 91.4403 47.152 93.0403 47.152C94.2136 47.152 95.2643 47.504 96.1923 48.208ZM103.592 48.448H101V58H99.816V48.448H97.224V47.328H103.592V48.448ZM105.189 47.328H107.109C108.175 47.328 108.991 47.552 109.557 48C110.197 48.4907 110.517 49.2267 110.517 50.208C110.517 51.1253 110.165 51.824 109.461 52.304C110.143 52.4747 110.65 52.8213 110.981 53.344C111.322 53.856 111.493 54.4053 111.493 54.992C111.493 55.472 111.386 55.9147 111.173 56.32C110.97 56.7253 110.714 57.0507 110.405 57.296C109.807 57.7653 108.954 58 107.845 58H105.189V47.328ZM106.373 48.448V52.016H107.269C107.429 52.016 107.583 52.0107 107.733 52C107.882 51.9787 108.058 51.936 108.261 51.872C108.474 51.7973 108.655 51.7013 108.805 51.584C108.965 51.4667 109.098 51.2907 109.205 51.056C109.311 50.8213 109.365 50.5493 109.365 50.24C109.365 49.9093 109.301 49.6267 109.173 49.392C109.045 49.1467 108.901 48.9653 108.741 48.848C108.581 48.7307 108.389 48.64 108.165 48.576C107.941 48.512 107.77 48.4747 107.653 48.464C107.535 48.4533 107.418 48.448 107.301 48.448H106.373ZM106.373 53.072V56.88H107.733C108.597 56.88 109.221 56.7307 109.605 56.432C110.074 56.0907 110.309 55.6 110.309 54.96C110.309 54.2453 110.005 53.7227 109.397 53.392C109.013 53.1787 108.41 53.072 107.589 53.072H106.373ZM122.585 56.608C121.518 57.664 120.206 58.192 118.649 58.192C117.092 58.192 115.774 57.664 114.697 56.608C113.63 55.552 113.097 54.24 113.097 52.672C113.097 51.0933 113.636 49.7813 114.713 48.736C115.79 47.68 117.102 47.152 118.649 47.152C120.196 47.152 121.508 47.68 122.585 48.736C123.662 49.7813 124.201 51.0933 124.201 52.672C124.201 54.24 123.662 55.552 122.585 56.608ZM121.721 49.552C120.878 48.6987 119.854 48.272 118.649 48.272C117.444 48.272 116.42 48.6987 115.577 49.552C114.734 50.4053 114.313 51.4453 114.313 52.672C114.313 53.8987 114.734 54.9387 115.577 55.792C116.42 56.6453 117.444 57.072 118.649 57.072C119.854 57.072 120.878 56.6453 121.721 55.792C122.564 54.9387 122.985 53.8987 122.985 52.672C122.985 51.4453 122.564 50.4053 121.721 49.552Z" fill="white"/>
<path d="M100.314 5.328H102.234C103.3 5.328 104.116 5.552 104.682 6C105.322 6.49067 105.642 7.22667 105.642 8.208C105.642 9.12533 105.29 9.824 104.586 10.304C105.268 10.4747 105.775 10.8213 106.106 11.344C106.447 11.856 106.618 12.4053 106.618 12.992C106.618 13.472 106.511 13.9147 106.298 14.32C106.095 14.7253 105.839 15.0507 105.53 15.296C104.932 15.7653 104.079 16 102.97 16H100.314V5.328ZM101.498 6.448V10.016H102.394C102.554 10.016 102.708 10.0107 102.858 10C103.007 9.97867 103.183 9.936 103.386 9.872C103.599 9.79733 103.78 9.70133 103.93 9.584C104.09 9.46667 104.223 9.29067 104.33 9.056C104.436 8.82133 104.49 8.54933 104.49 8.24C104.49 7.90933 104.426 7.62667 104.298 7.392C104.17 7.14667 104.026 6.96533 103.866 6.848C103.706 6.73067 103.514 6.64 103.29 6.576C103.066 6.512 102.895 6.47467 102.778 6.464C102.66 6.45333 102.543 6.448 102.426 6.448H101.498ZM101.498 11.072V14.88H102.858C103.722 14.88 104.346 14.7307 104.73 14.432C105.199 14.0907 105.434 13.6 105.434 12.96C105.434 12.2453 105.13 11.7227 104.522 11.392C104.138 11.1787 103.535 11.072 102.714 11.072H101.498ZM115.118 16H108.222L112.11 11.504C112.771 10.7253 113.187 10.208 113.358 9.952C113.753 9.38667 113.95 8.84267 113.95 8.32C113.95 7.712 113.753 7.216 113.358 6.832C112.963 6.43733 112.451 6.24 111.822 6.24C111.054 6.24 110.462 6.55467 110.046 7.184C109.822 7.52533 109.705 7.94667 109.694 8.448H108.51C108.553 7.54133 108.819 6.80533 109.31 6.24C109.95 5.51467 110.793 5.152 111.838 5.152C112.787 5.152 113.571 5.456 114.19 6.064C114.819 6.66133 115.134 7.41867 115.134 8.336C115.134 9.05067 114.851 9.81333 114.286 10.624C113.998 11.0187 113.513 11.6107 112.83 12.4L110.606 14.912H115.118V16ZM117.892 5.328H119.812C120.878 5.328 121.694 5.552 122.26 6C122.9 6.49067 123.22 7.22667 123.22 8.208C123.22 9.12533 122.868 9.824 122.164 10.304C122.846 10.4747 123.353 10.8213 123.684 11.344C124.025 11.856 124.196 12.4053 124.196 12.992C124.196 13.472 124.089 13.9147 123.876 14.32C123.673 14.7253 123.417 15.0507 123.108 15.296C122.51 15.7653 121.657 16 120.548 16H117.892V5.328ZM119.076 6.448V10.016H119.972C120.132 10.016 120.286 10.0107 120.436 10C120.585 9.97867 120.761 9.936 120.964 9.872C121.177 9.79733 121.358 9.70133 121.508 9.584C121.668 9.46667 121.801 9.29067 121.908 9.056C122.014 8.82133 122.068 8.54933 122.068 8.24C122.068 7.90933 122.004 7.62667 121.876 7.392C121.748 7.14667 121.604 6.96533 121.444 6.848C121.284 6.73067 121.092 6.64 120.868 6.576C120.644 6.512 120.473 6.47467 120.356 6.464C120.238 6.45333 120.121 6.448 120.004 6.448H119.076ZM119.076 11.072V14.88H120.436C121.3 14.88 121.924 14.7307 122.308 14.432C122.777 14.0907 123.012 13.6 123.012 12.96C123.012 12.2453 122.708 11.7227 122.1 11.392C121.716 11.1787 121.113 11.072 120.292 11.072H119.076Z" fill="white"/>
</svg>
