<svg xmlns="http://www.w3.org/2000/svg" width="58" height="46" fill="none"><path fill="#AD8366" fill-opacity=".5" d="M50.193 13.68c-1.11 2.773-4.622 5.36-8.689 5.36-5.176 0-9.982-3.881-9.982-9.242C31.521 4.622 35.404 0 42.059 0c7.949 0 12.94 7.025 12.94 17.007 0 11.092-7.21 23.108-19.965 28.284l-1.11-2.218c8.874-4.252 17.193-13.495 17.193-24.217 0-2.403-.37-3.882-.924-5.176Zm-31.522 0c-1.11 2.773-4.621 5.36-8.688 5.36C4.806 19.04 0 15.16 0 9.799 0 4.622 3.882 0 10.537 0c7.95 0 12.94 7.025 12.94 17.007 0 11.092-7.21 23.108-19.965 28.284l-1.109-2.218c8.874-4.252 17.192-13.495 17.192-24.217 0-2.403-.37-3.882-.924-5.176Z"/></svg>